# Tiled2Unity generated file. Do not modify by hand.
# Wavefront file for 'Forr_Cero_mesh_0003.obj'

# Vertices (Count = 232)
v -5.76 -1.28 0
v -6.08 -1.28 0
v -6.08 -0.96 0
v -5.76 -0.96 0
v -5.12 -1.6 0
v -5.44 -1.6 0
v -5.44 -1.28 0
v -5.12 -1.28 0
v -5.76 -1.6 0
v -6.08 -1.6 0
v -6.08 -1.28 0
v -5.76 -1.28 0
v -5.12 -1.92 0
v -5.44 -1.92 0
v -5.44 -1.6 0
v -5.12 -1.6 0
v -5.76 -2.56 0
v -6.08 -2.56 0
v -6.08 -2.24 0
v -5.76 -2.24 0
v -5.76 -2.88 0
v -6.08 -2.88 0
v -6.08 -2.56 0
v -5.76 -2.56 0
v 0 -3.2 0
v -0.32 -3.2 0
v -0.32 -2.88 0
v 0 -2.88 0
v -0.32 -3.2 0
v -0.64 -3.2 0
v -0.64 -2.88 0
v -0.32 -2.88 0
v -0.64 -3.2 0
v -0.96 -3.2 0
v -0.96 -2.88 0
v -0.64 -2.88 0
v -0.96 -3.2 0
v -1.28 -3.2 0
v -1.28 -2.88 0
v -0.96 -2.88 0
v -1.28 -3.2 0
v -1.6 -3.2 0
v -1.6 -2.88 0
v -1.28 -2.88 0
v -1.6 -3.2 0
v -1.92 -3.2 0
v -1.92 -2.88 0
v -1.6 -2.88 0
v -1.92 -3.2 0
v -2.24 -3.2 0
v -2.24 -2.88 0
v -1.92 -2.88 0
v -2.24 -3.2 0
v -2.56 -3.2 0
v -2.56 -2.88 0
v -2.24 -2.88 0
v -2.56 -3.2 0
v -2.88 -3.2 0
v -2.88 -2.88 0
v -2.56 -2.88 0
v -2.88 -3.2 0
v -3.2 -3.2 0
v -3.2 -2.88 0
v -2.88 -2.88 0
v 0 -3.52 0
v -0.32 -3.52 0
v -0.32 -3.2 0
v 0 -3.2 0
v -0.32 -3.52 0
v -0.64 -3.52 0
v -0.64 -3.2 0
v -0.32 -3.2 0
v -0.64 -3.52 0
v -0.96 -3.52 0
v -0.96 -3.2 0
v -0.64 -3.2 0
v -0.96 -3.52 0
v -1.28 -3.52 0
v -1.28 -3.2 0
v -0.96 -3.2 0
v -1.28 -3.52 0
v -1.6 -3.52 0
v -1.6 -3.2 0
v -1.28 -3.2 0
v -1.6 -3.52 0
v -1.92 -3.52 0
v -1.92 -3.2 0
v -1.6 -3.2 0
v -1.92 -3.52 0
v -2.24 -3.52 0
v -2.24 -3.2 0
v -1.92 -3.2 0
v -2.24 -3.52 0
v -2.56 -3.52 0
v -2.56 -3.2 0
v -2.24 -3.2 0
v -2.56 -3.52 0
v -2.88 -3.52 0
v -2.88 -3.2 0
v -2.56 -3.2 0
v -2.88 -3.52 0
v -3.2 -3.52 0
v -3.2 -3.2 0
v -2.88 -3.2 0
v 0 -4.48 0
v -0.32 -4.48 0
v -0.32 -4.16 0
v 0 -4.16 0
v -0.32 -4.48 0
v -0.64 -4.48 0
v -0.64 -4.16 0
v -0.32 -4.16 0
v -0.64 -4.48 0
v -0.96 -4.48 0
v -0.96 -4.16 0
v -0.64 -4.16 0
v -0.96 -4.48 0
v -1.28 -4.48 0
v -1.28 -4.16 0
v -0.96 -4.16 0
v -1.28 -4.48 0
v -1.6 -4.48 0
v -1.6 -4.16 0
v -1.28 -4.16 0
v -1.6 -4.48 0
v -1.92 -4.48 0
v -1.92 -4.16 0
v -1.6 -4.16 0
v -1.92 -4.48 0
v -2.24 -4.48 0
v -2.24 -4.16 0
v -1.92 -4.16 0
v -2.24 -4.48 0
v -2.56 -4.48 0
v -2.56 -4.16 0
v -2.24 -4.16 0
v -2.56 -4.48 0
v -2.88 -4.48 0
v -2.88 -4.16 0
v -2.56 -4.16 0
v -2.88 -4.48 0
v -3.2 -4.48 0
v -3.2 -4.16 0
v -2.88 -4.16 0
v 0 -4.8 0
v -0.32 -4.8 0
v -0.32 -4.48 0
v 0 -4.48 0
v -0.32 -4.8 0
v -0.64 -4.8 0
v -0.64 -4.48 0
v -0.32 -4.48 0
v -0.64 -4.8 0
v -0.96 -4.8 0
v -0.96 -4.48 0
v -0.64 -4.48 0
v -0.96 -4.8 0
v -1.28 -4.8 0
v -1.28 -4.48 0
v -0.96 -4.48 0
v -1.28 -4.8 0
v -1.6 -4.8 0
v -1.6 -4.48 0
v -1.28 -4.48 0
v -1.6 -4.8 0
v -1.92 -4.8 0
v -1.92 -4.48 0
v -1.6 -4.48 0
v -1.92 -4.8 0
v -2.24 -4.8 0
v -2.24 -4.48 0
v -1.92 -4.48 0
v -2.24 -4.8 0
v -2.56 -4.8 0
v -2.56 -4.48 0
v -2.24 -4.48 0
v -2.56 -4.8 0
v -2.88 -4.8 0
v -2.88 -4.48 0
v -2.56 -4.48 0
v -2.88 -4.8 0
v -3.2 -4.8 0
v -3.2 -4.48 0
v -2.88 -4.48 0
v -6.08 -6.72 0
v -6.4 -6.72 0
v -6.4 -6.4 0
v -6.08 -6.4 0
v -6.4 -6.72 0
v -6.72 -6.72 0
v -6.72 -6.4 0
v -6.4 -6.4 0
v -6.72 -6.72 0
v -7.04 -6.72 0
v -7.04 -6.4 0
v -6.72 -6.4 0
v -7.04 -6.72 0
v -7.36 -6.72 0
v -7.36 -6.4 0
v -7.04 -6.4 0
v -7.36 -6.72 0
v -7.68 -6.72 0
v -7.68 -6.4 0
v -7.36 -6.4 0
v -7.68 -6.72 0
v -8 -6.72 0
v -8 -6.4 0
v -7.68 -6.4 0
v -6.08 -7.04 0
v -6.4 -7.04 0
v -6.4 -6.72 0
v -6.08 -6.72 0
v -6.4 -7.04 0
v -6.72 -7.04 0
v -6.72 -6.72 0
v -6.4 -6.72 0
v -6.72 -7.04 0
v -7.04 -7.04 0
v -7.04 -6.72 0
v -6.72 -6.72 0
v -7.04 -7.04 0
v -7.36 -7.04 0
v -7.36 -6.72 0
v -7.04 -6.72 0
v -7.36 -7.04 0
v -7.68 -7.04 0
v -7.68 -6.72 0
v -7.36 -6.72 0
v -7.68 -7.04 0
v -8 -7.04 0
v -8 -6.72 0
v -7.68 -6.72 0

# Texture cooridinates (Count = 33)
vt 0.8125 0.0625
vt 0.875 0.0625
vt 0.875 0.125
vt 0.8125 0.125
vt 0.8125 0
vt 0.875 0
vt 0.9375 0.0625
vt 0.9375 0.125
vt 1 0.0625
vt 1 0.125
vt 0.9375 0
vt 1 0
vt 0 0.8125
vt 0.0625 0.8125
vt 0.0625 0.875
vt 0 0.875
vt 0.125 0.8125
vt 0.125 0.875
vt 0.1875 0.8125
vt 0.1875 0.875
vt 0.25 0.8125
vt 0.25 0.875
vt 0.3125 0.8125
vt 0.3125 0.875
vt 0.375 0.8125
vt 0.375 0.875
vt 0 0.75
vt 0.0625 0.75
vt 0.125 0.75
vt 0.1875 0.75
vt 0.25 0.75
vt 0.3125 0.75
vt 0.375 0.75

# Normal
vn 0 0 -1

# Mesh description
g Forr_Cero_mesh_0003

# Faces
f 1/1/1 2/2/1 3/3/1 4/4/1
f 5/1/1 6/2/1 7/3/1 8/4/1
f 9/5/1 10/6/1 11/2/1 12/1/1
f 13/5/1 14/6/1 15/2/1 16/1/1
f 17/1/1 18/2/1 19/3/1 20/4/1
f 21/5/1 22/6/1 23/2/1 24/1/1
f 25/2/1 26/7/1 27/8/1 28/3/1
f 29/7/1 30/9/1 31/10/1 32/8/1
f 33/2/1 34/7/1 35/8/1 36/3/1
f 37/7/1 38/9/1 39/10/1 40/8/1
f 41/2/1 42/7/1 43/8/1 44/3/1
f 45/7/1 46/9/1 47/10/1 48/8/1
f 49/2/1 50/7/1 51/8/1 52/3/1
f 53/7/1 54/9/1 55/10/1 56/8/1
f 57/2/1 58/7/1 59/8/1 60/3/1
f 61/7/1 62/9/1 63/10/1 64/8/1
f 65/6/1 66/11/1 67/7/1 68/2/1
f 69/11/1 70/12/1 71/9/1 72/7/1
f 73/6/1 74/11/1 75/7/1 76/2/1
f 77/11/1 78/12/1 79/9/1 80/7/1
f 81/6/1 82/11/1 83/7/1 84/2/1
f 85/11/1 86/12/1 87/9/1 88/7/1
f 89/6/1 90/11/1 91/7/1 92/2/1
f 93/11/1 94/12/1 95/9/1 96/7/1
f 97/6/1 98/11/1 99/7/1 100/2/1
f 101/11/1 102/12/1 103/9/1 104/7/1
f 105/2/1 106/7/1 107/8/1 108/3/1
f 109/7/1 110/9/1 111/10/1 112/8/1
f 113/2/1 114/7/1 115/8/1 116/3/1
f 117/7/1 118/9/1 119/10/1 120/8/1
f 121/2/1 122/7/1 123/8/1 124/3/1
f 125/7/1 126/9/1 127/10/1 128/8/1
f 129/2/1 130/7/1 131/8/1 132/3/1
f 133/7/1 134/9/1 135/10/1 136/8/1
f 137/2/1 138/7/1 139/8/1 140/3/1
f 141/7/1 142/9/1 143/10/1 144/8/1
f 145/6/1 146/11/1 147/7/1 148/2/1
f 149/11/1 150/12/1 151/9/1 152/7/1
f 153/6/1 154/11/1 155/7/1 156/2/1
f 157/11/1 158/12/1 159/9/1 160/7/1
f 161/6/1 162/11/1 163/7/1 164/2/1
f 165/11/1 166/12/1 167/9/1 168/7/1
f 169/6/1 170/11/1 171/7/1 172/2/1
f 173/11/1 174/12/1 175/9/1 176/7/1
f 177/6/1 178/11/1 179/7/1 180/2/1
f 181/11/1 182/12/1 183/9/1 184/7/1
f 185/13/1 186/14/1 187/15/1 188/16/1
f 189/14/1 190/17/1 191/18/1 192/15/1
f 193/17/1 194/19/1 195/20/1 196/18/1
f 197/19/1 198/21/1 199/22/1 200/20/1
f 201/21/1 202/23/1 203/24/1 204/22/1
f 205/23/1 206/25/1 207/26/1 208/24/1
f 209/27/1 210/28/1 211/14/1 212/13/1
f 213/28/1 214/29/1 215/17/1 216/14/1
f 217/29/1 218/30/1 219/19/1 220/17/1
f 221/30/1 222/31/1 223/21/1 224/19/1
f 225/31/1 226/32/1 227/23/1 228/21/1
f 229/32/1 230/33/1 231/25/1 232/23/1

