# Tiled2Unity generated file. Do not modify by hand.
# Wavefront file for 'Forr_Cero_mesh_0002.obj'

# Vertices (Count = 856)
v -6.08 -0.32 0
v -6.4 -0.32 0
v -6.4 0 0
v -6.08 0 0
v -6.4 -0.32 0
v -6.72 -0.32 0
v -6.72 0 0
v -6.4 0 0
v -6.72 -0.32 0
v -7.04 -0.32 0
v -7.04 0 0
v -6.72 0 0
v -7.04 -0.32 0
v -7.36 -0.32 0
v -7.36 0 0
v -7.04 0 0
v -7.36 -0.32 0
v -7.68 -0.32 0
v -7.68 0 0
v -7.36 0 0
v -7.68 -0.32 0
v -8 -0.32 0
v -8 0 0
v -7.68 0 0
v -6.08 -0.64 0
v -6.4 -0.64 0
v -6.4 -0.32 0
v -6.08 -0.32 0
v -6.4 -0.64 0
v -6.72 -0.64 0
v -6.72 -0.32 0
v -6.4 -0.32 0
v -6.72 -0.64 0
v -7.04 -0.64 0
v -7.04 -0.32 0
v -6.72 -0.32 0
v -7.04 -0.64 0
v -7.36 -0.64 0
v -7.36 -0.32 0
v -7.04 -0.32 0
v -7.36 -0.64 0
v -7.68 -0.64 0
v -7.68 -0.32 0
v -7.36 -0.32 0
v -7.68 -0.64 0
v -8 -0.64 0
v -8 -0.32 0
v -7.68 -0.32 0
v -6.08 -0.96 0
v -6.4 -0.96 0
v -6.4 -0.64 0
v -6.08 -0.64 0
v -6.4 -0.96 0
v -6.72 -0.96 0
v -6.72 -0.64 0
v -6.4 -0.64 0
v -6.72 -0.96 0
v -7.04 -0.96 0
v -7.04 -0.64 0
v -6.72 -0.64 0
v -7.04 -0.96 0
v -7.36 -0.96 0
v -7.36 -0.64 0
v -7.04 -0.64 0
v -7.36 -0.96 0
v -7.68 -0.96 0
v -7.68 -0.64 0
v -7.36 -0.64 0
v -7.68 -0.96 0
v -8 -0.96 0
v -8 -0.64 0
v -7.68 -0.64 0
v -6.08 -1.28 0
v -6.4 -1.28 0
v -6.4 -0.96 0
v -6.08 -0.96 0
v -6.4 -1.28 0
v -6.72 -1.28 0
v -6.72 -0.96 0
v -6.4 -0.96 0
v -6.72 -1.28 0
v -7.04 -1.28 0
v -7.04 -0.96 0
v -6.72 -0.96 0
v -7.04 -1.28 0
v -7.36 -1.28 0
v -7.36 -0.96 0
v -7.04 -0.96 0
v -7.36 -1.28 0
v -7.68 -1.28 0
v -7.68 -0.96 0
v -7.36 -0.96 0
v -7.68 -1.28 0
v -8 -1.28 0
v -8 -0.96 0
v -7.68 -0.96 0
v -6.08 -2.24 0
v -6.4 -2.24 0
v -6.4 -1.92 0
v -6.08 -1.92 0
v -6.4 -2.24 0
v -6.72 -2.24 0
v -6.72 -1.92 0
v -6.4 -1.92 0
v -6.72 -2.24 0
v -7.04 -2.24 0
v -7.04 -1.92 0
v -6.72 -1.92 0
v -7.04 -2.24 0
v -7.36 -2.24 0
v -7.36 -1.92 0
v -7.04 -1.92 0
v -7.36 -2.24 0
v -7.68 -2.24 0
v -7.68 -1.92 0
v -7.36 -1.92 0
v -7.68 -2.24 0
v -8 -2.24 0
v -8 -1.92 0
v -7.68 -1.92 0
v -6.08 -2.56 0
v -6.4 -2.56 0
v -6.4 -2.24 0
v -6.08 -2.24 0
v -6.4 -2.56 0
v -6.72 -2.56 0
v -6.72 -2.24 0
v -6.4 -2.24 0
v -6.72 -2.56 0
v -7.04 -2.56 0
v -7.04 -2.24 0
v -6.72 -2.24 0
v -7.04 -2.56 0
v -7.36 -2.56 0
v -7.36 -2.24 0
v -7.04 -2.24 0
v -7.36 -2.56 0
v -7.68 -2.56 0
v -7.68 -2.24 0
v -7.36 -2.24 0
v -7.68 -2.56 0
v -8 -2.56 0
v -8 -2.24 0
v -7.68 -2.24 0
v -6.08 -2.88 0
v -6.4 -2.88 0
v -6.4 -2.56 0
v -6.08 -2.56 0
v -6.4 -2.88 0
v -6.72 -2.88 0
v -6.72 -2.56 0
v -6.4 -2.56 0
v -6.72 -2.88 0
v -7.04 -2.88 0
v -7.04 -2.56 0
v -6.72 -2.56 0
v -7.04 -2.88 0
v -7.36 -2.88 0
v -7.36 -2.56 0
v -7.04 -2.56 0
v -7.36 -2.88 0
v -7.68 -2.88 0
v -7.68 -2.56 0
v -7.36 -2.56 0
v -7.68 -2.88 0
v -8 -2.88 0
v -8 -2.56 0
v -7.68 -2.56 0
v -6.08 -3.2 0
v -6.4 -3.2 0
v -6.4 -2.88 0
v -6.08 -2.88 0
v -6.4 -3.2 0
v -6.72 -3.2 0
v -6.72 -2.88 0
v -6.4 -2.88 0
v -6.72 -3.2 0
v -7.04 -3.2 0
v -7.04 -2.88 0
v -6.72 -2.88 0
v -7.04 -3.2 0
v -7.36 -3.2 0
v -7.36 -2.88 0
v -7.04 -2.88 0
v -7.36 -3.2 0
v -7.68 -3.2 0
v -7.68 -2.88 0
v -7.36 -2.88 0
v -7.68 -3.2 0
v -8 -3.2 0
v -8 -2.88 0
v -7.68 -2.88 0
v -6.08 -3.52 0
v -6.4 -3.52 0
v -6.4 -3.2 0
v -6.08 -3.2 0
v -6.4 -3.52 0
v -6.72 -3.52 0
v -6.72 -3.2 0
v -6.4 -3.2 0
v -6.72 -3.52 0
v -7.04 -3.52 0
v -7.04 -3.2 0
v -6.72 -3.2 0
v -7.04 -3.52 0
v -7.36 -3.52 0
v -7.36 -3.2 0
v -7.04 -3.2 0
v -7.36 -3.52 0
v -7.68 -3.52 0
v -7.68 -3.2 0
v -7.36 -3.2 0
v -7.68 -3.52 0
v -8 -3.52 0
v -8 -3.2 0
v -7.68 -3.2 0
v -6.08 -3.84 0
v -6.4 -3.84 0
v -6.4 -3.52 0
v -6.08 -3.52 0
v -6.4 -3.84 0
v -6.72 -3.84 0
v -6.72 -3.52 0
v -6.4 -3.52 0
v -6.72 -3.84 0
v -7.04 -3.84 0
v -7.04 -3.52 0
v -6.72 -3.52 0
v -7.04 -3.84 0
v -7.36 -3.84 0
v -7.36 -3.52 0
v -7.04 -3.52 0
v -7.36 -3.84 0
v -7.68 -3.84 0
v -7.68 -3.52 0
v -7.36 -3.52 0
v -7.68 -3.84 0
v -8 -3.84 0
v -8 -3.52 0
v -7.68 -3.52 0
v -6.08 -4.16 0
v -6.4 -4.16 0
v -6.4 -3.84 0
v -6.08 -3.84 0
v -6.4 -4.16 0
v -6.72 -4.16 0
v -6.72 -3.84 0
v -6.4 -3.84 0
v -6.72 -4.16 0
v -7.04 -4.16 0
v -7.04 -3.84 0
v -6.72 -3.84 0
v -7.04 -4.16 0
v -7.36 -4.16 0
v -7.36 -3.84 0
v -7.04 -3.84 0
v -7.36 -4.16 0
v -7.68 -4.16 0
v -7.68 -3.84 0
v -7.36 -3.84 0
v -7.68 -4.16 0
v -8 -4.16 0
v -8 -3.84 0
v -7.68 -3.84 0
v -6.08 -4.48 0
v -6.4 -4.48 0
v -6.4 -4.16 0
v -6.08 -4.16 0
v -6.4 -4.48 0
v -6.72 -4.48 0
v -6.72 -4.16 0
v -6.4 -4.16 0
v -6.72 -4.48 0
v -7.04 -4.48 0
v -7.04 -4.16 0
v -6.72 -4.16 0
v -7.04 -4.48 0
v -7.36 -4.48 0
v -7.36 -4.16 0
v -7.04 -4.16 0
v -7.36 -4.48 0
v -7.68 -4.48 0
v -7.68 -4.16 0
v -7.36 -4.16 0
v -7.68 -4.48 0
v -8 -4.48 0
v -8 -4.16 0
v -7.68 -4.16 0
v -6.08 -4.8 0
v -6.4 -4.8 0
v -6.4 -4.48 0
v -6.08 -4.48 0
v -6.4 -4.8 0
v -6.72 -4.8 0
v -6.72 -4.48 0
v -6.4 -4.48 0
v -6.72 -4.8 0
v -7.04 -4.8 0
v -7.04 -4.48 0
v -6.72 -4.48 0
v -7.04 -4.8 0
v -7.36 -4.8 0
v -7.36 -4.48 0
v -7.04 -4.48 0
v -7.36 -4.8 0
v -7.68 -4.8 0
v -7.68 -4.48 0
v -7.36 -4.48 0
v -7.68 -4.8 0
v -8 -4.8 0
v -8 -4.48 0
v -7.68 -4.48 0
v -6.08 -5.12 0
v -6.4 -5.12 0
v -6.4 -4.8 0
v -6.08 -4.8 0
v -6.4 -5.12 0
v -6.72 -5.12 0
v -6.72 -4.8 0
v -6.4 -4.8 0
v -6.72 -5.12 0
v -7.04 -5.12 0
v -7.04 -4.8 0
v -6.72 -4.8 0
v -7.04 -5.12 0
v -7.36 -5.12 0
v -7.36 -4.8 0
v -7.04 -4.8 0
v -7.36 -5.12 0
v -7.68 -5.12 0
v -7.68 -4.8 0
v -7.36 -4.8 0
v -7.68 -5.12 0
v -8 -5.12 0
v -8 -4.8 0
v -7.68 -4.8 0
v -6.08 -5.44 0
v -6.4 -5.44 0
v -6.4 -5.12 0
v -6.08 -5.12 0
v -6.4 -5.44 0
v -6.72 -5.44 0
v -6.72 -5.12 0
v -6.4 -5.12 0
v -6.72 -5.44 0
v -7.04 -5.44 0
v -7.04 -5.12 0
v -6.72 -5.12 0
v -7.04 -5.44 0
v -7.36 -5.44 0
v -7.36 -5.12 0
v -7.04 -5.12 0
v -7.36 -5.44 0
v -7.68 -5.44 0
v -7.68 -5.12 0
v -7.36 -5.12 0
v -7.68 -5.44 0
v -8 -5.44 0
v -8 -5.12 0
v -7.68 -5.12 0
v -6.08 -5.76 0
v -6.4 -5.76 0
v -6.4 -5.44 0
v -6.08 -5.44 0
v -6.4 -5.76 0
v -6.72 -5.76 0
v -6.72 -5.44 0
v -6.4 -5.44 0
v -6.72 -5.76 0
v -7.04 -5.76 0
v -7.04 -5.44 0
v -6.72 -5.44 0
v -7.04 -5.76 0
v -7.36 -5.76 0
v -7.36 -5.44 0
v -7.04 -5.44 0
v -7.36 -5.76 0
v -7.68 -5.76 0
v -7.68 -5.44 0
v -7.36 -5.44 0
v -7.68 -5.76 0
v -8 -5.76 0
v -8 -5.44 0
v -7.68 -5.44 0
v -6.08 -6.08 0
v -6.4 -6.08 0
v -6.4 -5.76 0
v -6.08 -5.76 0
v -6.4 -6.08 0
v -6.72 -6.08 0
v -6.72 -5.76 0
v -6.4 -5.76 0
v -6.72 -6.08 0
v -7.04 -6.08 0
v -7.04 -5.76 0
v -6.72 -5.76 0
v -7.04 -6.08 0
v -7.36 -6.08 0
v -7.36 -5.76 0
v -7.04 -5.76 0
v -7.36 -6.08 0
v -7.68 -6.08 0
v -7.68 -5.76 0
v -7.36 -5.76 0
v -7.68 -6.08 0
v -8 -6.08 0
v -8 -5.76 0
v -7.68 -5.76 0
v -6.08 -6.4 0
v -6.4 -6.4 0
v -6.4 -6.08 0
v -6.08 -6.08 0
v -6.4 -6.4 0
v -6.72 -6.4 0
v -6.72 -6.08 0
v -6.4 -6.08 0
v -6.72 -6.4 0
v -7.04 -6.4 0
v -7.04 -6.08 0
v -6.72 -6.08 0
v -7.04 -6.4 0
v -7.36 -6.4 0
v -7.36 -6.08 0
v -7.04 -6.08 0
v -7.36 -6.4 0
v -7.68 -6.4 0
v -7.68 -6.08 0
v -7.36 -6.08 0
v -7.68 -6.4 0
v -8 -6.4 0
v -8 -6.08 0
v -7.68 -6.08 0
v -6.08 -6.72 0
v -6.4 -6.72 0
v -6.4 -6.4 0
v -6.08 -6.4 0
v -6.4 -6.72 0
v -6.72 -6.72 0
v -6.72 -6.4 0
v -6.4 -6.4 0
v -6.72 -6.72 0
v -7.04 -6.72 0
v -7.04 -6.4 0
v -6.72 -6.4 0
v -7.04 -6.72 0
v -7.36 -6.72 0
v -7.36 -6.4 0
v -7.04 -6.4 0
v -7.36 -6.72 0
v -7.68 -6.72 0
v -7.68 -6.4 0
v -7.36 -6.4 0
v -7.68 -6.72 0
v -8 -6.72 0
v -8 -6.4 0
v -7.68 -6.4 0
v 0 -7.04 0
v -0.32 -7.04 0
v -0.32 -6.72 0
v 0 -6.72 0
v -0.32 -7.04 0
v -0.64 -7.04 0
v -0.64 -6.72 0
v -0.32 -6.72 0
v -0.64 -7.04 0
v -0.96 -7.04 0
v -0.96 -6.72 0
v -0.64 -6.72 0
v -0.96 -7.04 0
v -1.28 -7.04 0
v -1.28 -6.72 0
v -0.96 -6.72 0
v -1.28 -7.04 0
v -1.6 -7.04 0
v -1.6 -6.72 0
v -1.28 -6.72 0
v -1.6 -7.04 0
v -1.92 -7.04 0
v -1.92 -6.72 0
v -1.6 -6.72 0
v -1.92 -7.04 0
v -2.24 -7.04 0
v -2.24 -6.72 0
v -1.92 -6.72 0
v -2.24 -7.04 0
v -2.56 -7.04 0
v -2.56 -6.72 0
v -2.24 -6.72 0
v -2.56 -7.04 0
v -2.88 -7.04 0
v -2.88 -6.72 0
v -2.56 -6.72 0
v -2.88 -7.04 0
v -3.2 -7.04 0
v -3.2 -6.72 0
v -2.88 -6.72 0
v -3.2 -7.04 0
v -3.52 -7.04 0
v -3.52 -6.72 0
v -3.2 -6.72 0
v -3.52 -7.04 0
v -3.84 -7.04 0
v -3.84 -6.72 0
v -3.52 -6.72 0
v -3.84 -7.04 0
v -4.16 -7.04 0
v -4.16 -6.72 0
v -3.84 -6.72 0
v -4.16 -7.04 0
v -4.48 -7.04 0
v -4.48 -6.72 0
v -4.16 -6.72 0
v -4.48 -7.04 0
v -4.8 -7.04 0
v -4.8 -6.72 0
v -4.48 -6.72 0
v -4.8 -7.04 0
v -5.12 -7.04 0
v -5.12 -6.72 0
v -4.8 -6.72 0
v -5.12 -7.04 0
v -5.44 -7.04 0
v -5.44 -6.72 0
v -5.12 -6.72 0
v -5.44 -7.04 0
v -5.76 -7.04 0
v -5.76 -6.72 0
v -5.44 -6.72 0
v -5.76 -7.04 0
v -6.08 -7.04 0
v -6.08 -6.72 0
v -5.76 -6.72 0
v -6.08 -7.04 0
v -6.4 -7.04 0
v -6.4 -6.72 0
v -6.08 -6.72 0
v -6.4 -7.04 0
v -6.72 -7.04 0
v -6.72 -6.72 0
v -6.4 -6.72 0
v -6.72 -7.04 0
v -7.04 -7.04 0
v -7.04 -6.72 0
v -6.72 -6.72 0
v -7.04 -7.04 0
v -7.36 -7.04 0
v -7.36 -6.72 0
v -7.04 -6.72 0
v -7.36 -7.04 0
v -7.68 -7.04 0
v -7.68 -6.72 0
v -7.36 -6.72 0
v -7.68 -7.04 0
v -8 -7.04 0
v -8 -6.72 0
v -7.68 -6.72 0
v 0 -7.36 0
v -0.32 -7.36 0
v -0.32 -7.04 0
v 0 -7.04 0
v -0.32 -7.36 0
v -0.64 -7.36 0
v -0.64 -7.04 0
v -0.32 -7.04 0
v -0.64 -7.36 0
v -0.96 -7.36 0
v -0.96 -7.04 0
v -0.64 -7.04 0
v -0.96 -7.36 0
v -1.28 -7.36 0
v -1.28 -7.04 0
v -0.96 -7.04 0
v -1.28 -7.36 0
v -1.6 -7.36 0
v -1.6 -7.04 0
v -1.28 -7.04 0
v -1.6 -7.36 0
v -1.92 -7.36 0
v -1.92 -7.04 0
v -1.6 -7.04 0
v -1.92 -7.36 0
v -2.24 -7.36 0
v -2.24 -7.04 0
v -1.92 -7.04 0
v -2.24 -7.36 0
v -2.56 -7.36 0
v -2.56 -7.04 0
v -2.24 -7.04 0
v -2.56 -7.36 0
v -2.88 -7.36 0
v -2.88 -7.04 0
v -2.56 -7.04 0
v -2.88 -7.36 0
v -3.2 -7.36 0
v -3.2 -7.04 0
v -2.88 -7.04 0
v -3.2 -7.36 0
v -3.52 -7.36 0
v -3.52 -7.04 0
v -3.2 -7.04 0
v -3.52 -7.36 0
v -3.84 -7.36 0
v -3.84 -7.04 0
v -3.52 -7.04 0
v -3.84 -7.36 0
v -4.16 -7.36 0
v -4.16 -7.04 0
v -3.84 -7.04 0
v -4.16 -7.36 0
v -4.48 -7.36 0
v -4.48 -7.04 0
v -4.16 -7.04 0
v -4.48 -7.36 0
v -4.8 -7.36 0
v -4.8 -7.04 0
v -4.48 -7.04 0
v -4.8 -7.36 0
v -5.12 -7.36 0
v -5.12 -7.04 0
v -4.8 -7.04 0
v -5.12 -7.36 0
v -5.44 -7.36 0
v -5.44 -7.04 0
v -5.12 -7.04 0
v -5.44 -7.36 0
v -5.76 -7.36 0
v -5.76 -7.04 0
v -5.44 -7.04 0
v -5.76 -7.36 0
v -6.08 -7.36 0
v -6.08 -7.04 0
v -5.76 -7.04 0
v -6.08 -7.36 0
v -6.4 -7.36 0
v -6.4 -7.04 0
v -6.08 -7.04 0
v -6.4 -7.36 0
v -6.72 -7.36 0
v -6.72 -7.04 0
v -6.4 -7.04 0
v -6.72 -7.36 0
v -7.04 -7.36 0
v -7.04 -7.04 0
v -6.72 -7.04 0
v -7.04 -7.36 0
v -7.36 -7.36 0
v -7.36 -7.04 0
v -7.04 -7.04 0
v -7.36 -7.36 0
v -7.68 -7.36 0
v -7.68 -7.04 0
v -7.36 -7.04 0
v -7.68 -7.36 0
v -8 -7.36 0
v -8 -7.04 0
v -7.68 -7.04 0
v 0 -7.68 0
v -0.32 -7.68 0
v -0.32 -7.36 0
v 0 -7.36 0
v -0.32 -7.68 0
v -0.64 -7.68 0
v -0.64 -7.36 0
v -0.32 -7.36 0
v -0.64 -7.68 0
v -0.96 -7.68 0
v -0.96 -7.36 0
v -0.64 -7.36 0
v -0.96 -7.68 0
v -1.28 -7.68 0
v -1.28 -7.36 0
v -0.96 -7.36 0
v -1.28 -7.68 0
v -1.6 -7.68 0
v -1.6 -7.36 0
v -1.28 -7.36 0
v -1.6 -7.68 0
v -1.92 -7.68 0
v -1.92 -7.36 0
v -1.6 -7.36 0
v -1.92 -7.68 0
v -2.24 -7.68 0
v -2.24 -7.36 0
v -1.92 -7.36 0
v -2.24 -7.68 0
v -2.56 -7.68 0
v -2.56 -7.36 0
v -2.24 -7.36 0
v -2.56 -7.68 0
v -2.88 -7.68 0
v -2.88 -7.36 0
v -2.56 -7.36 0
v -2.88 -7.68 0
v -3.2 -7.68 0
v -3.2 -7.36 0
v -2.88 -7.36 0
v -3.2 -7.68 0
v -3.52 -7.68 0
v -3.52 -7.36 0
v -3.2 -7.36 0
v -3.52 -7.68 0
v -3.84 -7.68 0
v -3.84 -7.36 0
v -3.52 -7.36 0
v -3.84 -7.68 0
v -4.16 -7.68 0
v -4.16 -7.36 0
v -3.84 -7.36 0
v -4.16 -7.68 0
v -4.48 -7.68 0
v -4.48 -7.36 0
v -4.16 -7.36 0
v -4.48 -7.68 0
v -4.8 -7.68 0
v -4.8 -7.36 0
v -4.48 -7.36 0
v -4.8 -7.68 0
v -5.12 -7.68 0
v -5.12 -7.36 0
v -4.8 -7.36 0
v -5.12 -7.68 0
v -5.44 -7.68 0
v -5.44 -7.36 0
v -5.12 -7.36 0
v -5.44 -7.68 0
v -5.76 -7.68 0
v -5.76 -7.36 0
v -5.44 -7.36 0
v -5.76 -7.68 0
v -6.08 -7.68 0
v -6.08 -7.36 0
v -5.76 -7.36 0
v -6.08 -7.68 0
v -6.4 -7.68 0
v -6.4 -7.36 0
v -6.08 -7.36 0
v -6.4 -7.68 0
v -6.72 -7.68 0
v -6.72 -7.36 0
v -6.4 -7.36 0
v -6.72 -7.68 0
v -7.04 -7.68 0
v -7.04 -7.36 0
v -6.72 -7.36 0
v -7.04 -7.68 0
v -7.36 -7.68 0
v -7.36 -7.36 0
v -7.04 -7.36 0
v -7.36 -7.68 0
v -7.68 -7.68 0
v -7.68 -7.36 0
v -7.36 -7.36 0
v -7.68 -7.68 0
v -8 -7.68 0
v -8 -7.36 0
v -7.68 -7.36 0
v 0 -8 0
v -0.32 -8 0
v -0.32 -7.68 0
v 0 -7.68 0
v -0.32 -8 0
v -0.64 -8 0
v -0.64 -7.68 0
v -0.32 -7.68 0
v -0.64 -8 0
v -0.96 -8 0
v -0.96 -7.68 0
v -0.64 -7.68 0
v -0.96 -8 0
v -1.28 -8 0
v -1.28 -7.68 0
v -0.96 -7.68 0
v -1.28 -8 0
v -1.6 -8 0
v -1.6 -7.68 0
v -1.28 -7.68 0
v -1.6 -8 0
v -1.92 -8 0
v -1.92 -7.68 0
v -1.6 -7.68 0
v -1.92 -8 0
v -2.24 -8 0
v -2.24 -7.68 0
v -1.92 -7.68 0
v -2.24 -8 0
v -2.56 -8 0
v -2.56 -7.68 0
v -2.24 -7.68 0
v -2.56 -8 0
v -2.88 -8 0
v -2.88 -7.68 0
v -2.56 -7.68 0
v -2.88 -8 0
v -3.2 -8 0
v -3.2 -7.68 0
v -2.88 -7.68 0
v -3.2 -8 0
v -3.52 -8 0
v -3.52 -7.68 0
v -3.2 -7.68 0
v -3.52 -8 0
v -3.84 -8 0
v -3.84 -7.68 0
v -3.52 -7.68 0
v -3.84 -8 0
v -4.16 -8 0
v -4.16 -7.68 0
v -3.84 -7.68 0
v -4.16 -8 0
v -4.48 -8 0
v -4.48 -7.68 0
v -4.16 -7.68 0
v -4.48 -8 0
v -4.8 -8 0
v -4.8 -7.68 0
v -4.48 -7.68 0
v -4.8 -8 0
v -5.12 -8 0
v -5.12 -7.68 0
v -4.8 -7.68 0
v -5.12 -8 0
v -5.44 -8 0
v -5.44 -7.68 0
v -5.12 -7.68 0
v -5.44 -8 0
v -5.76 -8 0
v -5.76 -7.68 0
v -5.44 -7.68 0
v -5.76 -8 0
v -6.08 -8 0
v -6.08 -7.68 0
v -5.76 -7.68 0
v -6.08 -8 0
v -6.4 -8 0
v -6.4 -7.68 0
v -6.08 -7.68 0
v -6.4 -8 0
v -6.72 -8 0
v -6.72 -7.68 0
v -6.4 -7.68 0
v -6.72 -8 0
v -7.04 -8 0
v -7.04 -7.68 0
v -6.72 -7.68 0
v -7.04 -8 0
v -7.36 -8 0
v -7.36 -7.68 0
v -7.04 -7.68 0
v -7.36 -8 0
v -7.68 -8 0
v -7.68 -7.68 0
v -7.36 -7.68 0
v -7.68 -8 0
v -8 -8 0
v -8 -7.68 0
v -7.68 -7.68 0

# Texture cooridinates (Count = 56)
vt 0 0.75
vt 0.0625 0.75
vt 0.0625 0.8125
vt 0 0.8125
vt 0.125 0.75
vt 0.125 0.8125
vt 0.1875 0.75
vt 0.1875 0.8125
vt 0.25 0.75
vt 0.25 0.8125
vt 0.3125 0.75
vt 0.3125 0.8125
vt 0.375 0.75
vt 0.375 0.8125
vt 0 0.6875
vt 0.0625 0.6875
vt 0.125 0.6875
vt 0.1875 0.6875
vt 0.25 0.6875
vt 0.3125 0.6875
vt 0.375 0.6875
vt 0 0.625
vt 0.0625 0.625
vt 0.125 0.625
vt 0.1875 0.625
vt 0.25 0.625
vt 0.3125 0.625
vt 0.375 0.625
vt 0 0.5625
vt 0.0625 0.5625
vt 0.125 0.5625
vt 0.1875 0.5625
vt 0.25 0.5625
vt 0.3125 0.5625
vt 0.375 0.5625
vt 0 0.9375
vt 0.0625 0.9375
vt 0.0625 1
vt 0 1
vt 0.125 0.9375
vt 0.125 1
vt 0.1875 0.9375
vt 0.1875 1
vt 0.25 0.9375
vt 0.25 1
vt 0.3125 0.9375
vt 0.3125 1
vt 0.375 0.9375
vt 0.375 1
vt 0 0.875
vt 0.0625 0.875
vt 0.125 0.875
vt 0.1875 0.875
vt 0.25 0.875
vt 0.3125 0.875
vt 0.375 0.875

# Normal
vn 0 0 -1

# Mesh description
g Forr_Cero_mesh_0002

# Faces
f 1/1/1 2/2/1 3/3/1 4/4/1
f 5/2/1 6/5/1 7/6/1 8/3/1
f 9/5/1 10/7/1 11/8/1 12/6/1
f 13/7/1 14/9/1 15/10/1 16/8/1
f 17/9/1 18/11/1 19/12/1 20/10/1
f 21/11/1 22/13/1 23/14/1 24/12/1
f 25/15/1 26/16/1 27/2/1 28/1/1
f 29/16/1 30/17/1 31/5/1 32/2/1
f 33/17/1 34/18/1 35/7/1 36/5/1
f 37/18/1 38/19/1 39/9/1 40/7/1
f 41/19/1 42/20/1 43/11/1 44/9/1
f 45/20/1 46/21/1 47/13/1 48/11/1
f 49/22/1 50/23/1 51/16/1 52/15/1
f 53/23/1 54/24/1 55/17/1 56/16/1
f 57/24/1 58/25/1 59/18/1 60/17/1
f 61/25/1 62/26/1 63/19/1 64/18/1
f 65/26/1 66/27/1 67/20/1 68/19/1
f 69/27/1 70/28/1 71/21/1 72/20/1
f 73/29/1 74/30/1 75/23/1 76/22/1
f 77/30/1 78/31/1 79/24/1 80/23/1
f 81/31/1 82/32/1 83/25/1 84/24/1
f 85/32/1 86/33/1 87/26/1 88/25/1
f 89/33/1 90/34/1 91/27/1 92/26/1
f 93/34/1 94/35/1 95/28/1 96/27/1
f 97/36/1 98/37/1 99/38/1 100/39/1
f 101/37/1 102/40/1 103/41/1 104/38/1
f 105/40/1 106/42/1 107/43/1 108/41/1
f 109/42/1 110/44/1 111/45/1 112/43/1
f 113/44/1 114/46/1 115/47/1 116/45/1
f 117/46/1 118/48/1 119/49/1 120/47/1
f 121/50/1 122/51/1 123/37/1 124/36/1
f 125/51/1 126/52/1 127/40/1 128/37/1
f 129/52/1 130/53/1 131/42/1 132/40/1
f 133/53/1 134/54/1 135/44/1 136/42/1
f 137/54/1 138/55/1 139/46/1 140/44/1
f 141/55/1 142/56/1 143/48/1 144/46/1
f 145/4/1 146/3/1 147/51/1 148/50/1
f 149/3/1 150/6/1 151/52/1 152/51/1
f 153/6/1 154/8/1 155/53/1 156/52/1
f 157/8/1 158/10/1 159/54/1 160/53/1
f 161/10/1 162/12/1 163/55/1 164/54/1
f 165/12/1 166/14/1 167/56/1 168/55/1
f 169/1/1 170/2/1 171/3/1 172/4/1
f 173/2/1 174/5/1 175/6/1 176/3/1
f 177/5/1 178/7/1 179/8/1 180/6/1
f 181/7/1 182/9/1 183/10/1 184/8/1
f 185/9/1 186/11/1 187/12/1 188/10/1
f 189/11/1 190/13/1 191/14/1 192/12/1
f 193/4/1 194/3/1 195/51/1 196/50/1
f 197/3/1 198/6/1 199/52/1 200/51/1
f 201/6/1 202/8/1 203/53/1 204/52/1
f 205/8/1 206/10/1 207/54/1 208/53/1
f 209/10/1 210/12/1 211/55/1 212/54/1
f 213/12/1 214/14/1 215/56/1 216/55/1
f 217/4/1 218/3/1 219/51/1 220/50/1
f 221/3/1 222/6/1 223/52/1 224/51/1
f 225/6/1 226/8/1 227/53/1 228/52/1
f 229/8/1 230/10/1 231/54/1 232/53/1
f 233/10/1 234/12/1 235/55/1 236/54/1
f 237/12/1 238/14/1 239/56/1 240/55/1
f 241/4/1 242/3/1 243/51/1 244/50/1
f 245/3/1 246/6/1 247/52/1 248/51/1
f 249/6/1 250/8/1 251/53/1 252/52/1
f 253/8/1 254/10/1 255/54/1 256/53/1
f 257/10/1 258/12/1 259/55/1 260/54/1
f 261/12/1 262/14/1 263/56/1 264/55/1
f 265/4/1 266/3/1 267/51/1 268/50/1
f 269/3/1 270/6/1 271/52/1 272/51/1
f 273/6/1 274/8/1 275/53/1 276/52/1
f 277/8/1 278/10/1 279/54/1 280/53/1
f 281/10/1 282/12/1 283/55/1 284/54/1
f 285/12/1 286/14/1 287/56/1 288/55/1
f 289/4/1 290/3/1 291/51/1 292/50/1
f 293/3/1 294/6/1 295/52/1 296/51/1
f 297/6/1 298/8/1 299/53/1 300/52/1
f 301/8/1 302/10/1 303/54/1 304/53/1
f 305/10/1 306/12/1 307/55/1 308/54/1
f 309/12/1 310/14/1 311/56/1 312/55/1
f 313/4/1 314/3/1 315/51/1 316/50/1
f 317/3/1 318/6/1 319/52/1 320/51/1
f 321/6/1 322/8/1 323/53/1 324/52/1
f 325/8/1 326/10/1 327/54/1 328/53/1
f 329/10/1 330/12/1 331/55/1 332/54/1
f 333/12/1 334/14/1 335/56/1 336/55/1
f 337/4/1 338/3/1 339/51/1 340/50/1
f 341/3/1 342/6/1 343/52/1 344/51/1
f 345/6/1 346/8/1 347/53/1 348/52/1
f 349/8/1 350/10/1 351/54/1 352/53/1
f 353/10/1 354/12/1 355/55/1 356/54/1
f 357/12/1 358/14/1 359/56/1 360/55/1
f 361/4/1 362/3/1 363/51/1 364/50/1
f 365/3/1 366/6/1 367/52/1 368/51/1
f 369/6/1 370/8/1 371/53/1 372/52/1
f 373/8/1 374/10/1 375/54/1 376/53/1
f 377/10/1 378/12/1 379/55/1 380/54/1
f 381/12/1 382/14/1 383/56/1 384/55/1
f 385/4/1 386/3/1 387/51/1 388/50/1
f 389/3/1 390/6/1 391/52/1 392/51/1
f 393/6/1 394/8/1 395/53/1 396/52/1
f 397/8/1 398/10/1 399/54/1 400/53/1
f 401/10/1 402/12/1 403/55/1 404/54/1
f 405/12/1 406/14/1 407/56/1 408/55/1
f 409/4/1 410/3/1 411/51/1 412/50/1
f 413/3/1 414/6/1 415/52/1 416/51/1
f 417/6/1 418/8/1 419/53/1 420/52/1
f 421/8/1 422/10/1 423/54/1 424/53/1
f 425/10/1 426/12/1 427/55/1 428/54/1
f 429/12/1 430/14/1 431/56/1 432/55/1
f 433/4/1 434/3/1 435/51/1 436/50/1
f 437/3/1 438/6/1 439/52/1 440/51/1
f 441/6/1 442/8/1 443/53/1 444/52/1
f 445/8/1 446/10/1 447/54/1 448/53/1
f 449/10/1 450/12/1 451/55/1 452/54/1
f 453/12/1 454/14/1 455/56/1 456/55/1
f 457/42/1 458/44/1 459/45/1 460/43/1
f 461/42/1 462/44/1 463/45/1 464/43/1
f 465/42/1 466/44/1 467/45/1 468/43/1
f 469/42/1 470/44/1 471/45/1 472/43/1
f 473/42/1 474/44/1 475/45/1 476/43/1
f 477/42/1 478/44/1 479/45/1 480/43/1
f 481/42/1 482/44/1 483/45/1 484/43/1
f 485/42/1 486/44/1 487/45/1 488/43/1
f 489/42/1 490/44/1 491/45/1 492/43/1
f 493/42/1 494/44/1 495/45/1 496/43/1
f 497/42/1 498/44/1 499/45/1 500/43/1
f 501/42/1 502/44/1 503/45/1 504/43/1
f 505/42/1 506/44/1 507/45/1 508/43/1
f 509/42/1 510/44/1 511/45/1 512/43/1
f 513/42/1 514/44/1 515/45/1 516/43/1
f 517/42/1 518/44/1 519/45/1 520/43/1
f 521/42/1 522/44/1 523/45/1 524/43/1
f 525/40/1 526/42/1 527/43/1 528/41/1
f 529/42/1 530/44/1 531/45/1 532/43/1
f 533/40/1 534/42/1 535/43/1 536/41/1
f 537/42/1 538/44/1 539/45/1 540/43/1
f 541/6/1 542/8/1 543/53/1 544/52/1
f 545/8/1 546/10/1 547/54/1 548/53/1
f 549/10/1 550/12/1 551/55/1 552/54/1
f 553/12/1 554/14/1 555/56/1 556/55/1
f 557/53/1 558/54/1 559/44/1 560/42/1
f 561/53/1 562/54/1 563/44/1 564/42/1
f 565/53/1 566/54/1 567/44/1 568/42/1
f 569/53/1 570/54/1 571/44/1 572/42/1
f 573/53/1 574/54/1 575/44/1 576/42/1
f 577/53/1 578/54/1 579/44/1 580/42/1
f 581/53/1 582/54/1 583/44/1 584/42/1
f 585/53/1 586/54/1 587/44/1 588/42/1
f 589/53/1 590/54/1 591/44/1 592/42/1
f 593/53/1 594/54/1 595/44/1 596/42/1
f 597/53/1 598/54/1 599/44/1 600/42/1
f 601/53/1 602/54/1 603/44/1 604/42/1
f 605/53/1 606/54/1 607/44/1 608/42/1
f 609/53/1 610/54/1 611/44/1 612/42/1
f 613/53/1 614/54/1 615/44/1 616/42/1
f 617/53/1 618/54/1 619/44/1 620/42/1
f 621/53/1 622/54/1 623/44/1 624/42/1
f 625/52/1 626/53/1 627/42/1 628/40/1
f 629/53/1 630/54/1 631/44/1 632/42/1
f 633/52/1 634/53/1 635/42/1 636/40/1
f 637/53/1 638/54/1 639/44/1 640/42/1
f 641/5/1 642/7/1 643/8/1 644/6/1
f 645/7/1 646/9/1 647/10/1 648/8/1
f 649/9/1 650/11/1 651/12/1 652/10/1
f 653/11/1 654/13/1 655/14/1 656/12/1
f 657/8/1 658/10/1 659/54/1 660/53/1
f 661/8/1 662/10/1 663/54/1 664/53/1
f 665/8/1 666/10/1 667/54/1 668/53/1
f 669/8/1 670/10/1 671/54/1 672/53/1
f 673/8/1 674/10/1 675/54/1 676/53/1
f 677/8/1 678/10/1 679/54/1 680/53/1
f 681/8/1 682/10/1 683/54/1 684/53/1
f 685/8/1 686/10/1 687/54/1 688/53/1
f 689/8/1 690/10/1 691/54/1 692/53/1
f 693/8/1 694/10/1 695/54/1 696/53/1
f 697/8/1 698/10/1 699/54/1 700/53/1
f 701/8/1 702/10/1 703/54/1 704/53/1
f 705/8/1 706/10/1 707/54/1 708/53/1
f 709/8/1 710/10/1 711/54/1 712/53/1
f 713/8/1 714/10/1 715/54/1 716/53/1
f 717/8/1 718/10/1 719/54/1 720/53/1
f 721/8/1 722/10/1 723/54/1 724/53/1
f 725/6/1 726/8/1 727/53/1 728/52/1
f 729/8/1 730/10/1 731/54/1 732/53/1
f 733/6/1 734/8/1 735/53/1 736/52/1
f 737/8/1 738/10/1 739/54/1 740/53/1
f 741/5/1 742/7/1 743/8/1 744/6/1
f 745/7/1 746/9/1 747/10/1 748/8/1
f 749/9/1 750/11/1 751/12/1 752/10/1
f 753/11/1 754/13/1 755/14/1 756/12/1
f 757/7/1 758/9/1 759/10/1 760/8/1
f 761/7/1 762/9/1 763/10/1 764/8/1
f 765/7/1 766/9/1 767/10/1 768/8/1
f 769/7/1 770/9/1 771/10/1 772/8/1
f 773/7/1 774/9/1 775/10/1 776/8/1
f 777/7/1 778/9/1 779/10/1 780/8/1
f 781/7/1 782/9/1 783/10/1 784/8/1
f 785/7/1 786/9/1 787/10/1 788/8/1
f 789/7/1 790/9/1 791/10/1 792/8/1
f 793/7/1 794/9/1 795/10/1 796/8/1
f 797/7/1 798/9/1 799/10/1 800/8/1
f 801/7/1 802/9/1 803/10/1 804/8/1
f 805/7/1 806/9/1 807/10/1 808/8/1
f 809/7/1 810/9/1 811/10/1 812/8/1
f 813/7/1 814/9/1 815/10/1 816/8/1
f 817/7/1 818/9/1 819/10/1 820/8/1
f 821/7/1 822/9/1 823/10/1 824/8/1
f 825/5/1 826/7/1 827/8/1 828/6/1
f 829/7/1 830/9/1 831/10/1 832/8/1
f 833/5/1 834/7/1 835/8/1 836/6/1
f 837/7/1 838/9/1 839/10/1 840/8/1
f 841/6/1 842/8/1 843/53/1 844/52/1
f 845/8/1 846/10/1 847/54/1 848/53/1
f 849/10/1 850/12/1 851/55/1 852/54/1
f 853/12/1 854/14/1 855/56/1 856/55/1

