# Tiled2Unity generated file. Do not modify by hand.
# Wavefront file for 'Forr_Tres_mesh_0004.obj'

# Vertices (Count = 364)
v -0.96 -0.32 0
v -1.28 -0.32 0
v -1.28 0 0
v -0.96 0 0
v -1.28 -0.32 0
v -1.6 -0.32 0
v -1.6 0 0
v -1.28 0 0
v -1.6 -0.32 0
v -1.92 -0.32 0
v -1.92 0 0
v -1.6 0 0
v -1.92 -0.32 0
v -2.24 -0.32 0
v -2.24 0 0
v -1.92 0 0
v -2.24 -0.32 0
v -2.56 -0.32 0
v -2.56 0 0
v -2.24 0 0
v -2.56 -0.32 0
v -2.88 -0.32 0
v -2.88 0 0
v -2.56 0 0
v -3.2 -0.32 0
v -3.52 -0.32 0
v -3.52 0 0
v -3.2 0 0
v -3.52 -0.32 0
v -3.84 -0.32 0
v -3.84 0 0
v -3.52 0 0
v -3.84 -0.32 0
v -4.16 -0.32 0
v -4.16 0 0
v -3.84 0 0
v -4.48 -0.32 0
v -4.8 -0.32 0
v -4.8 0 0
v -4.48 0 0
v -4.8 -0.32 0
v -5.12 -0.32 0
v -5.12 0 0
v -4.8 0 0
v -5.12 -0.32 0
v -5.44 -0.32 0
v -5.44 0 0
v -5.12 0 0
v -5.44 -0.32 0
v -5.76 -0.32 0
v -5.76 0 0
v -5.44 0 0
v -5.76 -0.32 0
v -6.08 -0.32 0
v -6.08 0 0
v -5.76 0 0
v -6.08 -0.32 0
v -6.4 -0.32 0
v -6.4 0 0
v -6.08 0 0
v -7.36 -0.32 0
v -7.68 -0.32 0
v -7.68 0 0
v -7.36 0 0
v -7.68 -0.32 0
v -8 -0.32 0
v -8 0 0
v -7.68 0 0
v 0 -0.64 0
v -0.32 -0.64 0
v -0.32 -0.32 0
v 0 -0.32 0
v -0.32 -0.64 0
v -0.64 -0.64 0
v -0.64 -0.32 0
v -0.32 -0.32 0
v -0.96 -0.64 0
v -1.28 -0.64 0
v -1.28 -0.32 0
v -0.96 -0.32 0
v -1.28 -0.64 0
v -1.6 -0.64 0
v -1.6 -0.32 0
v -1.28 -0.32 0
v -1.6 -0.64 0
v -1.92 -0.64 0
v -1.92 -0.32 0
v -1.6 -0.32 0
v -1.92 -0.64 0
v -2.24 -0.64 0
v -2.24 -0.32 0
v -1.92 -0.32 0
v -2.24 -0.64 0
v -2.56 -0.64 0
v -2.56 -0.32 0
v -2.24 -0.32 0
v -2.56 -0.64 0
v -2.88 -0.64 0
v -2.88 -0.32 0
v -2.56 -0.32 0
v -3.2 -0.64 0
v -3.52 -0.64 0
v -3.52 -0.32 0
v -3.2 -0.32 0
v -3.52 -0.64 0
v -3.84 -0.64 0
v -3.84 -0.32 0
v -3.52 -0.32 0
v -3.84 -0.64 0
v -4.16 -0.64 0
v -4.16 -0.32 0
v -3.84 -0.32 0
v -4.48 -0.64 0
v -4.8 -0.64 0
v -4.8 -0.32 0
v -4.48 -0.32 0
v -4.8 -0.64 0
v -5.12 -0.64 0
v -5.12 -0.32 0
v -4.8 -0.32 0
v -5.12 -0.64 0
v -5.44 -0.64 0
v -5.44 -0.32 0
v -5.12 -0.32 0
v -7.36 -0.64 0
v -7.68 -0.64 0
v -7.68 -0.32 0
v -7.36 -0.32 0
v -7.68 -0.64 0
v -8 -0.64 0
v -8 -0.32 0
v -7.68 -0.32 0
v 0 -0.96 0
v -0.32 -0.96 0
v -0.32 -0.64 0
v 0 -0.64 0
v -0.32 -0.96 0
v -0.64 -0.96 0
v -0.64 -0.64 0
v -0.32 -0.64 0
v -0.96 -0.96 0
v -1.28 -0.96 0
v -1.28 -0.64 0
v -0.96 -0.64 0
v -1.28 -0.96 0
v -1.6 -0.96 0
v -1.6 -0.64 0
v -1.28 -0.64 0
v -1.6 -0.96 0
v -1.92 -0.96 0
v -1.92 -0.64 0
v -1.6 -0.64 0
v -3.2 -0.96 0
v -3.52 -0.96 0
v -3.52 -0.64 0
v -3.2 -0.64 0
v -3.52 -0.96 0
v -3.84 -0.96 0
v -3.84 -0.64 0
v -3.52 -0.64 0
v -3.84 -0.96 0
v -4.16 -0.96 0
v -4.16 -0.64 0
v -3.84 -0.64 0
v -7.36 -0.96 0
v -7.68 -0.96 0
v -7.68 -0.64 0
v -7.36 -0.64 0
v -7.68 -0.96 0
v -8 -0.96 0
v -8 -0.64 0
v -7.68 -0.64 0
v 0 -1.28 0
v -0.32 -1.28 0
v -0.32 -0.96 0
v 0 -0.96 0
v -0.32 -1.28 0
v -0.64 -1.28 0
v -0.64 -0.96 0
v -0.32 -0.96 0
v -0.96 -1.28 0
v -1.28 -1.28 0
v -1.28 -0.96 0
v -0.96 -0.96 0
v -1.28 -1.28 0
v -1.6 -1.28 0
v -1.6 -0.96 0
v -1.28 -0.96 0
v -1.6 -1.28 0
v -1.92 -1.28 0
v -1.92 -0.96 0
v -1.6 -0.96 0
v -7.36 -1.28 0
v -7.68 -1.28 0
v -7.68 -0.96 0
v -7.36 -0.96 0
v -7.68 -1.28 0
v -8 -1.28 0
v -8 -0.96 0
v -7.68 -0.96 0
v 0 -1.6 0
v -0.32 -1.6 0
v -0.32 -1.28 0
v 0 -1.28 0
v -0.32 -1.6 0
v -0.64 -1.6 0
v -0.64 -1.28 0
v -0.32 -1.28 0
v -7.36 -1.6 0
v -7.68 -1.6 0
v -7.68 -1.28 0
v -7.36 -1.28 0
v -7.68 -1.6 0
v -8 -1.6 0
v -8 -1.28 0
v -7.68 -1.28 0
v -7.36 -1.92 0
v -7.68 -1.92 0
v -7.68 -1.6 0
v -7.36 -1.6 0
v -7.68 -1.92 0
v -8 -1.92 0
v -8 -1.6 0
v -7.68 -1.6 0
v -7.68 -3.52 0
v -8 -3.52 0
v -8 -3.2 0
v -7.68 -3.2 0
v -7.68 -3.84 0
v -8 -3.84 0
v -8 -3.52 0
v -7.68 -3.52 0
v 0 -4.16 0
v -0.32 -4.16 0
v -0.32 -3.84 0
v 0 -3.84 0
v -7.68 -4.16 0
v -8 -4.16 0
v -8 -3.84 0
v -7.68 -3.84 0
v 0 -4.48 0
v -0.32 -4.48 0
v -0.32 -4.16 0
v 0 -4.16 0
v -7.68 -4.48 0
v -8 -4.48 0
v -8 -4.16 0
v -7.68 -4.16 0
v 0 -4.8 0
v -0.32 -4.8 0
v -0.32 -4.48 0
v 0 -4.48 0
v -7.68 -4.8 0
v -8 -4.8 0
v -8 -4.48 0
v -7.68 -4.48 0
v 0 -5.12 0
v -0.32 -5.12 0
v -0.32 -4.8 0
v 0 -4.8 0
v -7.68 -5.12 0
v -8 -5.12 0
v -8 -4.8 0
v -7.68 -4.8 0
v -7.68 -5.44 0
v -8 -5.44 0
v -8 -5.12 0
v -7.68 -5.12 0
v -1.28 -5.76 0
v -1.6 -5.76 0
v -1.6 -5.44 0
v -1.28 -5.44 0
v -1.6 -5.76 0
v -1.92 -5.76 0
v -1.92 -5.44 0
v -1.6 -5.44 0
v -1.92 -5.76 0
v -2.24 -5.76 0
v -2.24 -5.44 0
v -1.92 -5.44 0
v -7.68 -5.76 0
v -8 -5.76 0
v -8 -5.44 0
v -7.68 -5.44 0
v -1.28 -6.08 0
v -1.6 -6.08 0
v -1.6 -5.76 0
v -1.28 -5.76 0
v -1.6 -6.08 0
v -1.92 -6.08 0
v -1.92 -5.76 0
v -1.6 -5.76 0
v -1.92 -6.08 0
v -2.24 -6.08 0
v -2.24 -5.76 0
v -1.92 -5.76 0
v -7.68 -6.08 0
v -8 -6.08 0
v -8 -5.76 0
v -7.68 -5.76 0
v 0 -6.4 0
v -0.32 -6.4 0
v -0.32 -6.08 0
v 0 -6.08 0
v -0.32 -6.4 0
v -0.64 -6.4 0
v -0.64 -6.08 0
v -0.32 -6.08 0
v -1.28 -6.4 0
v -1.6 -6.4 0
v -1.6 -6.08 0
v -1.28 -6.08 0
v -1.6 -6.4 0
v -1.92 -6.4 0
v -1.92 -6.08 0
v -1.6 -6.08 0
v -1.92 -6.4 0
v -2.24 -6.4 0
v -2.24 -6.08 0
v -1.92 -6.08 0
v -7.68 -6.4 0
v -8 -6.4 0
v -8 -6.08 0
v -7.68 -6.08 0
v 0 -6.72 0
v -0.32 -6.72 0
v -0.32 -6.4 0
v 0 -6.4 0
v -0.32 -6.72 0
v -0.64 -6.72 0
v -0.64 -6.4 0
v -0.32 -6.4 0
v -1.28 -6.72 0
v -1.6 -6.72 0
v -1.6 -6.4 0
v -1.28 -6.4 0
v -1.6 -6.72 0
v -1.92 -6.72 0
v -1.92 -6.4 0
v -1.6 -6.4 0
v -1.92 -6.72 0
v -2.24 -6.72 0
v -2.24 -6.4 0
v -1.92 -6.4 0
v -7.68 -6.72 0
v -8 -6.72 0
v -8 -6.4 0
v -7.68 -6.4 0
v 0 -7.04 0
v -0.32 -7.04 0
v -0.32 -6.72 0
v 0 -6.72 0
v -0.32 -7.04 0
v -0.64 -7.04 0
v -0.64 -6.72 0
v -0.32 -6.72 0
v 0 -7.36 0
v -0.32 -7.36 0
v -0.32 -7.04 0
v 0 -7.04 0
v -0.32 -7.36 0
v -0.64 -7.36 0
v -0.64 -7.04 0
v -0.32 -7.04 0

# Texture cooridinates (Count = 20)
vt 0.25 0.1875
vt 0.3125 0.1875
vt 0.3125 0.25
vt 0.25 0.25
vt 0.375 0.1875
vt 0.375 0.25
vt 0.4375 0.1875
vt 0.4375 0.25
vt 0.25 0.0625
vt 0.3125 0.0625
vt 0.3125 0.125
vt 0.25 0.125
vt 0.375 0.0625
vt 0.375 0.125
vt 0.4375 0.0625
vt 0.4375 0.125
vt 0.25 0
vt 0.3125 0
vt 0.375 0
vt 0.4375 0

# Normal
vn 0 0 -1

# Mesh description
g Forr_Tres_mesh_0004

# Faces
f 1/1/1 2/2/1 3/3/1 4/4/1
f 5/2/1 6/5/1 7/6/1 8/3/1
f 9/5/1 10/7/1 11/8/1 12/6/1
f 13/9/1 14/10/1 15/11/1 16/12/1
f 17/10/1 18/13/1 19/14/1 20/11/1
f 21/13/1 22/15/1 23/16/1 24/14/1
f 25/12/1 26/11/1 27/2/1 28/1/1
f 29/11/1 30/14/1 31/5/1 32/2/1
f 33/14/1 34/16/1 35/7/1 36/5/1
f 37/9/1 38/10/1 39/11/1 40/12/1
f 41/10/1 42/13/1 43/14/1 44/11/1
f 45/13/1 46/15/1 47/16/1 48/14/1
f 49/17/1 50/18/1 51/10/1 52/9/1
f 53/18/1 54/19/1 55/13/1 56/10/1
f 57/19/1 58/20/1 59/15/1 60/13/1
f 61/9/1 62/10/1 63/11/1 64/12/1
f 65/10/1 66/13/1 67/14/1 68/11/1
f 69/2/1 70/5/1 71/6/1 72/3/1
f 73/5/1 74/7/1 75/8/1 76/6/1
f 77/12/1 78/11/1 79/2/1 80/1/1
f 81/11/1 82/14/1 83/5/1 84/2/1
f 85/14/1 86/16/1 87/7/1 88/5/1
f 89/17/1 90/18/1 91/10/1 92/9/1
f 93/18/1 94/19/1 95/13/1 96/10/1
f 97/19/1 98/20/1 99/15/1 100/13/1
f 101/9/1 102/10/1 103/11/1 104/12/1
f 105/10/1 106/13/1 107/14/1 108/11/1
f 109/13/1 110/15/1 111/16/1 112/14/1
f 113/17/1 114/18/1 115/10/1 116/9/1
f 117/18/1 118/19/1 119/13/1 120/10/1
f 121/19/1 122/20/1 123/15/1 124/13/1
f 125/17/1 126/18/1 127/10/1 128/9/1
f 129/18/1 130/19/1 131/13/1 132/10/1
f 133/11/1 134/14/1 135/5/1 136/2/1
f 137/14/1 138/16/1 139/7/1 140/5/1
f 141/9/1 142/10/1 143/11/1 144/12/1
f 145/10/1 146/13/1 147/14/1 148/11/1
f 149/13/1 150/15/1 151/16/1 152/14/1
f 153/17/1 154/18/1 155/10/1 156/9/1
f 157/18/1 158/19/1 159/13/1 160/10/1
f 161/19/1 162/20/1 163/15/1 164/13/1
f 165/1/1 166/2/1 167/3/1 168/4/1
f 169/2/1 170/5/1 171/6/1 172/3/1
f 173/10/1 174/13/1 175/14/1 176/11/1
f 177/13/1 178/15/1 179/16/1 180/14/1
f 181/17/1 182/18/1 183/10/1 184/9/1
f 185/18/1 186/19/1 187/13/1 188/10/1
f 189/19/1 190/20/1 191/15/1 192/13/1
f 193/12/1 194/11/1 195/2/1 196/1/1
f 197/11/1 198/14/1 199/5/1 200/2/1
f 201/18/1 202/19/1 203/13/1 204/10/1
f 205/19/1 206/20/1 207/15/1 208/13/1
f 209/9/1 210/10/1 211/11/1 212/12/1
f 213/10/1 214/13/1 215/14/1 216/11/1
f 217/17/1 218/18/1 219/10/1 220/9/1
f 221/18/1 222/19/1 223/13/1 224/10/1
f 225/1/1 226/2/1 227/3/1 228/4/1
f 229/12/1 230/11/1 231/2/1 232/1/1
f 233/5/1 234/7/1 235/8/1 236/6/1
f 237/9/1 238/10/1 239/11/1 240/12/1
f 241/14/1 242/16/1 243/7/1 244/5/1
f 245/1/1 246/2/1 247/3/1 248/4/1
f 249/13/1 250/15/1 251/16/1 252/14/1
f 253/12/1 254/11/1 255/2/1 256/1/1
f 257/19/1 258/20/1 259/15/1 260/13/1
f 261/9/1 262/10/1 263/11/1 264/12/1
f 265/17/1 266/18/1 267/10/1 268/9/1
f 269/1/1 270/2/1 271/3/1 272/4/1
f 273/2/1 274/5/1 275/6/1 276/3/1
f 277/5/1 278/7/1 279/8/1 280/6/1
f 281/1/1 282/2/1 283/3/1 284/4/1
f 285/12/1 286/11/1 287/2/1 288/1/1
f 289/11/1 290/14/1 291/5/1 292/2/1
f 293/14/1 294/16/1 295/7/1 296/5/1
f 297/12/1 298/11/1 299/2/1 300/1/1
f 301/2/1 302/5/1 303/6/1 304/3/1
f 305/5/1 306/7/1 307/8/1 308/6/1
f 309/9/1 310/10/1 311/11/1 312/12/1
f 313/10/1 314/13/1 315/14/1 316/11/1
f 317/13/1 318/15/1 319/16/1 320/14/1
f 321/9/1 322/10/1 323/11/1 324/12/1
f 325/11/1 326/14/1 327/5/1 328/2/1
f 329/14/1 330/16/1 331/7/1 332/5/1
f 333/17/1 334/18/1 335/10/1 336/9/1
f 337/18/1 338/19/1 339/13/1 340/10/1
f 341/19/1 342/20/1 343/15/1 344/13/1
f 345/17/1 346/18/1 347/10/1 348/9/1
f 349/10/1 350/13/1 351/14/1 352/11/1
f 353/13/1 354/15/1 355/16/1 356/14/1
f 357/18/1 358/19/1 359/13/1 360/10/1
f 361/19/1 362/20/1 363/15/1 364/13/1

