# Tiled2Unity generated file. Do not modify by hand.
# Wavefront file for 'Forr_Tres_mesh_0005.obj'

# Vertices (Count = 464)
v -6.08 -0.32 0
v -6.4 -0.32 0
v -6.4 0 0
v -6.08 0 0
v -6.4 -0.32 0
v -6.72 -0.32 0
v -6.72 0 0
v -6.4 0 0
v -2.88 -0.64 0
v -3.2 -0.64 0
v -3.2 -0.32 0
v -2.88 -0.32 0
v -3.2 -0.64 0
v -3.52 -0.64 0
v -3.52 -0.32 0
v -3.2 -0.32 0
v -5.12 -0.64 0
v -5.44 -0.64 0
v -5.44 -0.32 0
v -5.12 -0.32 0
v -5.44 -0.64 0
v -5.76 -0.64 0
v -5.76 -0.32 0
v -5.44 -0.32 0
v -6.08 -0.64 0
v -6.4 -0.64 0
v -6.4 -0.32 0
v -6.08 -0.32 0
v -6.4 -0.64 0
v -6.72 -0.64 0
v -6.72 -0.32 0
v -6.4 -0.32 0
v -2.88 -0.96 0
v -3.2 -0.96 0
v -3.2 -0.64 0
v -2.88 -0.64 0
v -3.2 -0.96 0
v -3.52 -0.96 0
v -3.52 -0.64 0
v -3.2 -0.64 0
v -4.48 -0.96 0
v -4.8 -0.96 0
v -4.8 -0.64 0
v -4.48 -0.64 0
v -4.8 -0.96 0
v -5.12 -0.96 0
v -5.12 -0.64 0
v -4.8 -0.64 0
v -5.12 -0.96 0
v -5.44 -0.96 0
v -5.44 -0.64 0
v -5.12 -0.64 0
v -5.44 -0.96 0
v -5.76 -0.96 0
v -5.76 -0.64 0
v -5.44 -0.64 0
v -6.08 -0.96 0
v -6.4 -0.96 0
v -6.4 -0.64 0
v -6.08 -0.64 0
v -6.4 -0.96 0
v -6.72 -0.96 0
v -6.72 -0.64 0
v -6.4 -0.64 0
v -2.88 -1.28 0
v -3.2 -1.28 0
v -3.2 -0.96 0
v -2.88 -0.96 0
v -3.2 -1.28 0
v -3.52 -1.28 0
v -3.52 -0.96 0
v -3.2 -0.96 0
v -4.48 -1.28 0
v -4.8 -1.28 0
v -4.8 -0.96 0
v -4.48 -0.96 0
v -4.8 -1.28 0
v -5.12 -1.28 0
v -5.12 -0.96 0
v -4.8 -0.96 0
v -5.12 -1.28 0
v -5.44 -1.28 0
v -5.44 -0.96 0
v -5.12 -0.96 0
v -5.44 -1.28 0
v -5.76 -1.28 0
v -5.76 -0.96 0
v -5.44 -0.96 0
v -6.08 -1.28 0
v -6.4 -1.28 0
v -6.4 -0.96 0
v -6.08 -0.96 0
v -6.4 -1.28 0
v -6.72 -1.28 0
v -6.72 -0.96 0
v -6.4 -0.96 0
v 0 -1.6 0
v -0.32 -1.6 0
v -0.32 -1.28 0
v 0 -1.28 0
v -2.88 -1.6 0
v -3.2 -1.6 0
v -3.2 -1.28 0
v -2.88 -1.28 0
v -3.2 -1.6 0
v -3.52 -1.6 0
v -3.52 -1.28 0
v -3.2 -1.28 0
v -4.48 -1.6 0
v -4.8 -1.6 0
v -4.8 -1.28 0
v -4.48 -1.28 0
v -4.8 -1.6 0
v -5.12 -1.6 0
v -5.12 -1.28 0
v -4.8 -1.28 0
v -5.12 -1.6 0
v -5.44 -1.6 0
v -5.44 -1.28 0
v -5.12 -1.28 0
v -5.44 -1.6 0
v -5.76 -1.6 0
v -5.76 -1.28 0
v -5.44 -1.28 0
v 0 -1.92 0
v -0.32 -1.92 0
v -0.32 -1.6 0
v 0 -1.6 0
v -4.48 -1.92 0
v -4.8 -1.92 0
v -4.8 -1.6 0
v -4.48 -1.6 0
v -4.8 -1.92 0
v -5.12 -1.92 0
v -5.12 -1.6 0
v -4.8 -1.6 0
v -6.72 -1.92 0
v -7.04 -1.92 0
v -7.04 -1.6 0
v -6.72 -1.6 0
v -7.04 -1.92 0
v -7.36 -1.92 0
v -7.36 -1.6 0
v -7.04 -1.6 0
v 0 -2.24 0
v -0.32 -2.24 0
v -0.32 -1.92 0
v 0 -1.92 0
v -5.44 -2.24 0
v -5.76 -2.24 0
v -5.76 -1.92 0
v -5.44 -1.92 0
v -5.76 -2.24 0
v -6.08 -2.24 0
v -6.08 -1.92 0
v -5.76 -1.92 0
v -6.72 -2.24 0
v -7.04 -2.24 0
v -7.04 -1.92 0
v -6.72 -1.92 0
v -7.04 -2.24 0
v -7.36 -2.24 0
v -7.36 -1.92 0
v -7.04 -1.92 0
v 0 -2.56 0
v -0.32 -2.56 0
v -0.32 -2.24 0
v 0 -2.24 0
v -5.44 -2.56 0
v -5.76 -2.56 0
v -5.76 -2.24 0
v -5.44 -2.24 0
v -5.76 -2.56 0
v -6.08 -2.56 0
v -6.08 -2.24 0
v -5.76 -2.24 0
v -6.72 -2.56 0
v -7.04 -2.56 0
v -7.04 -2.24 0
v -6.72 -2.24 0
v -7.04 -2.56 0
v -7.36 -2.56 0
v -7.36 -2.24 0
v -7.04 -2.24 0
v -5.44 -2.88 0
v -5.76 -2.88 0
v -5.76 -2.56 0
v -5.44 -2.56 0
v -5.76 -2.88 0
v -6.08 -2.88 0
v -6.08 -2.56 0
v -5.76 -2.56 0
v -6.4 -2.88 0
v -6.72 -2.88 0
v -6.72 -2.56 0
v -6.4 -2.56 0
v -6.72 -2.88 0
v -7.04 -2.88 0
v -7.04 -2.56 0
v -6.72 -2.56 0
v -7.04 -2.88 0
v -7.36 -2.88 0
v -7.36 -2.56 0
v -7.04 -2.56 0
v -5.44 -3.2 0
v -5.76 -3.2 0
v -5.76 -2.88 0
v -5.44 -2.88 0
v -5.76 -3.2 0
v -6.08 -3.2 0
v -6.08 -2.88 0
v -5.76 -2.88 0
v -6.4 -3.2 0
v -6.72 -3.2 0
v -6.72 -2.88 0
v -6.4 -2.88 0
v -6.72 -3.2 0
v -7.04 -3.2 0
v -7.04 -2.88 0
v -6.72 -2.88 0
v -0.32 -3.52 0
v -0.64 -3.52 0
v -0.64 -3.2 0
v -0.32 -3.2 0
v -0.64 -3.52 0
v -0.96 -3.52 0
v -0.96 -3.2 0
v -0.64 -3.2 0
v -6.4 -3.52 0
v -6.72 -3.52 0
v -6.72 -3.2 0
v -6.4 -3.2 0
v -6.72 -3.52 0
v -7.04 -3.52 0
v -7.04 -3.2 0
v -6.72 -3.2 0
v -0.32 -3.84 0
v -0.64 -3.84 0
v -0.64 -3.52 0
v -0.32 -3.52 0
v -0.64 -3.84 0
v -0.96 -3.84 0
v -0.96 -3.52 0
v -0.64 -3.52 0
v -6.4 -3.84 0
v -6.72 -3.84 0
v -6.72 -3.52 0
v -6.4 -3.52 0
v -6.72 -3.84 0
v -7.04 -3.84 0
v -7.04 -3.52 0
v -6.72 -3.52 0
v -0.32 -4.16 0
v -0.64 -4.16 0
v -0.64 -3.84 0
v -0.32 -3.84 0
v -0.64 -4.16 0
v -0.96 -4.16 0
v -0.96 -3.84 0
v -0.64 -3.84 0
v -0.96 -4.16 0
v -1.28 -4.16 0
v -1.28 -3.84 0
v -0.96 -3.84 0
v -1.28 -4.16 0
v -1.6 -4.16 0
v -1.6 -3.84 0
v -1.28 -3.84 0
v -0.32 -4.48 0
v -0.64 -4.48 0
v -0.64 -4.16 0
v -0.32 -4.16 0
v -0.64 -4.48 0
v -0.96 -4.48 0
v -0.96 -4.16 0
v -0.64 -4.16 0
v -0.96 -4.48 0
v -1.28 -4.48 0
v -1.28 -4.16 0
v -0.96 -4.16 0
v -1.28 -4.48 0
v -1.6 -4.48 0
v -1.6 -4.16 0
v -1.28 -4.16 0
v -0.96 -4.8 0
v -1.28 -4.8 0
v -1.28 -4.48 0
v -0.96 -4.48 0
v -1.28 -4.8 0
v -1.6 -4.8 0
v -1.6 -4.48 0
v -1.28 -4.48 0
v -0.96 -5.12 0
v -1.28 -5.12 0
v -1.28 -4.8 0
v -0.96 -4.8 0
v -1.28 -5.12 0
v -1.6 -5.12 0
v -1.6 -4.8 0
v -1.28 -4.8 0
v -6.72 -5.12 0
v -7.04 -5.12 0
v -7.04 -4.8 0
v -6.72 -4.8 0
v -7.04 -5.12 0
v -7.36 -5.12 0
v -7.36 -4.8 0
v -7.04 -4.8 0
v -6.72 -5.44 0
v -7.04 -5.44 0
v -7.04 -5.12 0
v -6.72 -5.12 0
v -7.04 -5.44 0
v -7.36 -5.44 0
v -7.36 -5.12 0
v -7.04 -5.12 0
v -6.72 -5.76 0
v -7.04 -5.76 0
v -7.04 -5.44 0
v -6.72 -5.44 0
v -7.04 -5.76 0
v -7.36 -5.76 0
v -7.36 -5.44 0
v -7.04 -5.44 0
v -6.72 -6.08 0
v -7.04 -6.08 0
v -7.04 -5.76 0
v -6.72 -5.76 0
v -7.04 -6.08 0
v -7.36 -6.08 0
v -7.36 -5.76 0
v -7.04 -5.76 0
v -0.32 -7.36 0
v -0.64 -7.36 0
v -0.64 -7.04 0
v -0.32 -7.04 0
v -0.64 -7.36 0
v -0.96 -7.36 0
v -0.96 -7.04 0
v -0.64 -7.04 0
v -1.28 -7.36 0
v -1.6 -7.36 0
v -1.6 -7.04 0
v -1.28 -7.04 0
v -1.6 -7.36 0
v -1.92 -7.36 0
v -1.92 -7.04 0
v -1.6 -7.04 0
v -2.56 -7.36 0
v -2.88 -7.36 0
v -2.88 -7.04 0
v -2.56 -7.04 0
v -2.88 -7.36 0
v -3.2 -7.36 0
v -3.2 -7.04 0
v -2.88 -7.04 0
v -6.08 -7.36 0
v -6.4 -7.36 0
v -6.4 -7.04 0
v -6.08 -7.04 0
v -6.4 -7.36 0
v -6.72 -7.36 0
v -6.72 -7.04 0
v -6.4 -7.04 0
v -6.72 -7.36 0
v -7.04 -7.36 0
v -7.04 -7.04 0
v -6.72 -7.04 0
v -7.04 -7.36 0
v -7.36 -7.36 0
v -7.36 -7.04 0
v -7.04 -7.04 0
v -7.68 -7.36 0
v -8 -7.36 0
v -8 -7.04 0
v -7.68 -7.04 0
v -0.32 -7.68 0
v -0.64 -7.68 0
v -0.64 -7.36 0
v -0.32 -7.36 0
v -0.64 -7.68 0
v -0.96 -7.68 0
v -0.96 -7.36 0
v -0.64 -7.36 0
v -1.28 -7.68 0
v -1.6 -7.68 0
v -1.6 -7.36 0
v -1.28 -7.36 0
v -1.6 -7.68 0
v -1.92 -7.68 0
v -1.92 -7.36 0
v -1.6 -7.36 0
v -2.56 -7.68 0
v -2.88 -7.68 0
v -2.88 -7.36 0
v -2.56 -7.36 0
v -2.88 -7.68 0
v -3.2 -7.68 0
v -3.2 -7.36 0
v -2.88 -7.36 0
v -6.08 -7.68 0
v -6.4 -7.68 0
v -6.4 -7.36 0
v -6.08 -7.36 0
v -6.4 -7.68 0
v -6.72 -7.68 0
v -6.72 -7.36 0
v -6.4 -7.36 0
v -6.72 -7.68 0
v -7.04 -7.68 0
v -7.04 -7.36 0
v -6.72 -7.36 0
v -7.04 -7.68 0
v -7.36 -7.68 0
v -7.36 -7.36 0
v -7.04 -7.36 0
v -7.68 -7.68 0
v -8 -7.68 0
v -8 -7.36 0
v -7.68 -7.36 0
v -0.32 -8 0
v -0.64 -8 0
v -0.64 -7.68 0
v -0.32 -7.68 0
v -0.64 -8 0
v -0.96 -8 0
v -0.96 -7.68 0
v -0.64 -7.68 0
v -1.28 -8 0
v -1.6 -8 0
v -1.6 -7.68 0
v -1.28 -7.68 0
v -1.6 -8 0
v -1.92 -8 0
v -1.92 -7.68 0
v -1.6 -7.68 0
v -2.56 -8 0
v -2.88 -8 0
v -2.88 -7.68 0
v -2.56 -7.68 0
v -2.88 -8 0
v -3.2 -8 0
v -3.2 -7.68 0
v -2.88 -7.68 0
v -6.08 -8 0
v -6.4 -8 0
v -6.4 -7.68 0
v -6.08 -7.68 0
v -6.4 -8 0
v -6.72 -8 0
v -6.72 -7.68 0
v -6.4 -7.68 0
v -6.72 -8 0
v -7.04 -8 0
v -7.04 -7.68 0
v -6.72 -7.68 0
v -7.04 -8 0
v -7.36 -8 0
v -7.36 -7.68 0
v -7.04 -7.68 0
v -7.68 -8 0
v -8 -8 0
v -8 -7.68 0
v -7.68 -7.68 0

# Texture cooridinates (Count = 15)
vt 0.5625 0.1875
vt 0.625 0.1875
vt 0.625 0.25
vt 0.5625 0.25
vt 0.6875 0.1875
vt 0.6875 0.25
vt 0.5625 0.125
vt 0.625 0.125
vt 0.6875 0.125
vt 0.5625 0.0625
vt 0.625 0.0625
vt 0.6875 0.0625
vt 0.5625 0
vt 0.625 0
vt 0.6875 0

# Normal
vn 0 0 -1

# Mesh description
g Forr_Tres_mesh_0005

# Faces
f 1/1/1 2/2/1 3/3/1 4/4/1
f 5/2/1 6/5/1 7/6/1 8/3/1
f 9/1/1 10/2/1 11/3/1 12/4/1
f 13/2/1 14/5/1 15/6/1 16/3/1
f 17/1/1 18/2/1 19/3/1 20/4/1
f 21/2/1 22/5/1 23/6/1 24/3/1
f 25/7/1 26/8/1 27/2/1 28/1/1
f 29/8/1 30/9/1 31/5/1 32/2/1
f 33/7/1 34/8/1 35/2/1 36/1/1
f 37/8/1 38/9/1 39/5/1 40/2/1
f 41/1/1 42/2/1 43/3/1 44/4/1
f 45/2/1 46/5/1 47/6/1 48/3/1
f 49/7/1 50/8/1 51/2/1 52/1/1
f 53/8/1 54/9/1 55/5/1 56/2/1
f 57/10/1 58/11/1 59/8/1 60/7/1
f 61/11/1 62/12/1 63/9/1 64/8/1
f 65/10/1 66/11/1 67/8/1 68/7/1
f 69/11/1 70/12/1 71/9/1 72/8/1
f 73/7/1 74/8/1 75/2/1 76/1/1
f 77/8/1 78/9/1 79/5/1 80/2/1
f 81/10/1 82/11/1 83/8/1 84/7/1
f 85/11/1 86/12/1 87/9/1 88/8/1
f 89/13/1 90/14/1 91/11/1 92/10/1
f 93/14/1 94/15/1 95/12/1 96/11/1
f 97/2/1 98/5/1 99/6/1 100/3/1
f 101/13/1 102/14/1 103/11/1 104/10/1
f 105/14/1 106/15/1 107/12/1 108/11/1
f 109/10/1 110/11/1 111/8/1 112/7/1
f 113/11/1 114/12/1 115/9/1 116/8/1
f 117/13/1 118/14/1 119/11/1 120/10/1
f 121/14/1 122/15/1 123/12/1 124/11/1
f 125/8/1 126/9/1 127/5/1 128/2/1
f 129/13/1 130/14/1 131/11/1 132/10/1
f 133/14/1 134/15/1 135/12/1 136/11/1
f 137/1/1 138/2/1 139/3/1 140/4/1
f 141/2/1 142/5/1 143/6/1 144/3/1
f 145/11/1 146/12/1 147/9/1 148/8/1
f 149/1/1 150/2/1 151/3/1 152/4/1
f 153/2/1 154/5/1 155/6/1 156/3/1
f 157/7/1 158/8/1 159/2/1 160/1/1
f 161/8/1 162/9/1 163/5/1 164/2/1
f 165/14/1 166/15/1 167/12/1 168/11/1
f 169/7/1 170/8/1 171/2/1 172/1/1
f 173/8/1 174/9/1 175/5/1 176/2/1
f 177/10/1 178/11/1 179/8/1 180/7/1
f 181/11/1 182/12/1 183/9/1 184/8/1
f 185/10/1 186/11/1 187/8/1 188/7/1
f 189/11/1 190/12/1 191/9/1 192/8/1
f 193/1/1 194/2/1 195/3/1 196/4/1
f 197/13/1 198/14/1 199/11/1 200/10/1
f 201/14/1 202/15/1 203/12/1 204/11/1
f 205/13/1 206/14/1 207/11/1 208/10/1
f 209/14/1 210/15/1 211/12/1 212/11/1
f 213/7/1 214/8/1 215/2/1 216/1/1
f 217/8/1 218/9/1 219/5/1 220/2/1
f 221/1/1 222/2/1 223/3/1 224/4/1
f 225/2/1 226/5/1 227/6/1 228/3/1
f 229/10/1 230/11/1 231/8/1 232/7/1
f 233/11/1 234/12/1 235/9/1 236/8/1
f 237/7/1 238/8/1 239/2/1 240/1/1
f 241/8/1 242/9/1 243/5/1 244/2/1
f 245/13/1 246/14/1 247/11/1 248/10/1
f 249/14/1 250/15/1 251/12/1 252/11/1
f 253/10/1 254/11/1 255/8/1 256/7/1
f 257/11/1 258/12/1 259/9/1 260/8/1
f 261/1/1 262/2/1 263/3/1 264/4/1
f 265/2/1 266/5/1 267/6/1 268/3/1
f 269/13/1 270/14/1 271/11/1 272/10/1
f 273/14/1 274/15/1 275/12/1 276/11/1
f 277/7/1 278/8/1 279/2/1 280/1/1
f 281/8/1 282/9/1 283/5/1 284/2/1
f 285/10/1 286/11/1 287/8/1 288/7/1
f 289/11/1 290/12/1 291/9/1 292/8/1
f 293/13/1 294/14/1 295/11/1 296/10/1
f 297/14/1 298/15/1 299/12/1 300/11/1
f 301/1/1 302/2/1 303/3/1 304/4/1
f 305/2/1 306/5/1 307/6/1 308/3/1
f 309/7/1 310/8/1 311/2/1 312/1/1
f 313/8/1 314/9/1 315/5/1 316/2/1
f 317/10/1 318/11/1 319/8/1 320/7/1
f 321/11/1 322/12/1 323/9/1 324/8/1
f 325/13/1 326/14/1 327/11/1 328/10/1
f 329/14/1 330/15/1 331/12/1 332/11/1
f 333/1/1 334/2/1 335/3/1 336/4/1
f 337/2/1 338/5/1 339/6/1 340/3/1
f 341/1/1 342/2/1 343/3/1 344/4/1
f 345/2/1 346/5/1 347/6/1 348/3/1
f 349/1/1 350/2/1 351/3/1 352/4/1
f 353/2/1 354/5/1 355/6/1 356/3/1
f 357/1/1 358/2/1 359/3/1 360/4/1
f 361/2/1 362/5/1 363/6/1 364/3/1
f 365/1/1 366/2/1 367/3/1 368/4/1
f 369/2/1 370/5/1 371/6/1 372/3/1
f 373/1/1 374/2/1 375/3/1 376/4/1
f 377/7/1 378/8/1 379/2/1 380/1/1
f 381/8/1 382/9/1 383/5/1 384/2/1
f 385/7/1 386/8/1 387/2/1 388/1/1
f 389/8/1 390/9/1 391/5/1 392/2/1
f 393/7/1 394/8/1 395/2/1 396/1/1
f 397/8/1 398/9/1 399/5/1 400/2/1
f 401/7/1 402/8/1 403/2/1 404/1/1
f 405/8/1 406/9/1 407/5/1 408/2/1
f 409/7/1 410/8/1 411/2/1 412/1/1
f 413/8/1 414/9/1 415/5/1 416/2/1
f 417/7/1 418/8/1 419/2/1 420/1/1
f 421/10/1 422/11/1 423/8/1 424/7/1
f 425/11/1 426/12/1 427/9/1 428/8/1
f 429/10/1 430/11/1 431/8/1 432/7/1
f 433/11/1 434/12/1 435/9/1 436/8/1
f 437/10/1 438/11/1 439/8/1 440/7/1
f 441/11/1 442/12/1 443/9/1 444/8/1
f 445/10/1 446/11/1 447/8/1 448/7/1
f 449/11/1 450/12/1 451/9/1 452/8/1
f 453/10/1 454/11/1 455/8/1 456/7/1
f 457/11/1 458/12/1 459/9/1 460/8/1
f 461/10/1 462/11/1 463/8/1 464/7/1

