# Tiled2Unity generated file. Do not modify by hand.
# Wavefront file for 'Forr_Uno_mesh_0004.obj'

# Vertices (Count = 32)
v -4.8 -1.28 0
v -5.12 -1.28 0
v -5.12 -0.96 0
v -4.8 -0.96 0
v -4.8 -1.6 0
v -5.12 -1.6 0
v -5.12 -1.28 0
v -4.8 -1.28 0
v -6.72 -2.88 0
v -7.04 -2.88 0
v -7.04 -2.56 0
v -6.72 -2.56 0
v -6.72 -3.2 0
v -7.04 -3.2 0
v -7.04 -2.88 0
v -6.72 -2.88 0
v -0.64 -4.8 0
v -0.96 -4.8 0
v -0.96 -4.48 0
v -0.64 -4.48 0
v -0.64 -5.12 0
v -0.96 -5.12 0
v -0.96 -4.8 0
v -0.64 -4.8 0
v -2.88 -7.68 0
v -3.2 -7.68 0
v -3.2 -7.36 0
v -2.88 -7.36 0
v -2.88 -8 0
v -3.2 -8 0
v -3.2 -7.68 0
v -2.88 -7.68 0

# Texture cooridinates (Count = 10)
vt 0.8125 0.1875
vt 0.875 0.1875
vt 0.875 0.25
vt 0.8125 0.25
vt 0.8125 0.125
vt 0.875 0.125
vt 0.75 0.125
vt 0.75 0.1875
vt 0.75 0.0625
vt 0.8125 0.0625

# Normal
vn 0 0 -1

# Mesh description
g Forr_Uno_mesh_0004

# Faces
f 1/1/1 2/2/1 3/3/1 4/4/1
f 5/5/1 6/6/1 7/2/1 8/1/1
f 9/1/1 10/2/1 11/3/1 12/4/1
f 13/5/1 14/6/1 15/2/1 16/1/1
f 17/7/1 18/5/1 19/1/1 20/8/1
f 21/9/1 22/10/1 23/5/1 24/7/1
f 25/1/1 26/2/1 27/3/1 28/4/1
f 29/5/1 30/6/1 31/2/1 32/1/1

