# Tiled2Unity generated file. Do not modify by hand.
# Wavefront file for 'Forr_Dos_mesh_0003.obj'

# Vertices (Count = 540)
v -3.84 -0.32 0
v -4.16 -0.32 0
v -4.16 0 0
v -3.84 0 0
v -4.16 -0.32 0
v -4.48 -0.32 0
v -4.48 0 0
v -4.16 0 0
v -6.08 -0.32 0
v -6.4 -0.32 0
v -6.4 0 0
v -6.08 0 0
v -3.52 -0.64 0
v -3.84 -0.64 0
v -3.84 -0.32 0
v -3.52 -0.32 0
v -3.84 -0.64 0
v -4.16 -0.64 0
v -4.16 -0.32 0
v -3.84 -0.32 0
v -6.08 -0.64 0
v -6.4 -0.64 0
v -6.4 -0.32 0
v -6.08 -0.32 0
v -3.2 -0.96 0
v -3.52 -0.96 0
v -3.52 -0.64 0
v -3.2 -0.64 0
v -3.52 -0.96 0
v -3.84 -0.96 0
v -3.84 -0.64 0
v -3.52 -0.64 0
v -3.84 -0.96 0
v -4.16 -0.96 0
v -4.16 -0.64 0
v -3.84 -0.64 0
v -6.08 -0.96 0
v -6.4 -0.96 0
v -6.4 -0.64 0
v -6.08 -0.64 0
v -1.92 -1.28 0
v -2.24 -1.28 0
v -2.24 -0.96 0
v -1.92 -0.96 0
v -2.88 -1.28 0
v -3.2 -1.28 0
v -3.2 -0.96 0
v -2.88 -0.96 0
v -3.2 -1.28 0
v -3.52 -1.28 0
v -3.52 -0.96 0
v -3.2 -0.96 0
v -3.52 -1.28 0
v -3.84 -1.28 0
v -3.84 -0.96 0
v -3.52 -0.96 0
v -0.96 -1.6 0
v -1.28 -1.6 0
v -1.28 -1.28 0
v -0.96 -1.28 0
v -1.28 -1.6 0
v -1.6 -1.6 0
v -1.6 -1.28 0
v -1.28 -1.28 0
v -1.6 -1.6 0
v -1.92 -1.6 0
v -1.92 -1.28 0
v -1.6 -1.28 0
v -3.2 -1.6 0
v -3.52 -1.6 0
v -3.52 -1.28 0
v -3.2 -1.28 0
v -0.64 -1.92 0
v -0.96 -1.92 0
v -0.96 -1.6 0
v -0.64 -1.6 0
v -0.96 -1.92 0
v -1.28 -1.92 0
v -1.28 -1.6 0
v -0.96 -1.6 0
v -4.8 -1.92 0
v -5.12 -1.92 0
v -5.12 -1.6 0
v -4.8 -1.6 0
v -5.12 -1.92 0
v -5.44 -1.92 0
v -5.44 -1.6 0
v -5.12 -1.6 0
v -0.64 -2.24 0
v -0.96 -2.24 0
v -0.96 -1.92 0
v -0.64 -1.92 0
v -4.8 -2.24 0
v -5.12 -2.24 0
v -5.12 -1.92 0
v -4.8 -1.92 0
v -5.12 -2.24 0
v -5.44 -2.24 0
v -5.44 -1.92 0
v -5.12 -1.92 0
v -5.44 -2.24 0
v -5.76 -2.24 0
v -5.76 -1.92 0
v -5.44 -1.92 0
v -0.64 -2.56 0
v -0.96 -2.56 0
v -0.96 -2.24 0
v -0.64 -2.24 0
v -2.24 -2.56 0
v -2.56 -2.56 0
v -2.56 -2.24 0
v -2.24 -2.24 0
v -3.84 -2.56 0
v -4.16 -2.56 0
v -4.16 -2.24 0
v -3.84 -2.24 0
v -5.12 -2.56 0
v -5.44 -2.56 0
v -5.44 -2.24 0
v -5.12 -2.24 0
v -0.32 -2.88 0
v -0.64 -2.88 0
v -0.64 -2.56 0
v -0.32 -2.56 0
v -0.64 -2.88 0
v -0.96 -2.88 0
v -0.96 -2.56 0
v -0.64 -2.56 0
v -2.24 -2.88 0
v -2.56 -2.88 0
v -2.56 -2.56 0
v -2.24 -2.56 0
v -2.88 -2.88 0
v -3.2 -2.88 0
v -3.2 -2.56 0
v -2.88 -2.56 0
v -3.52 -2.88 0
v -3.84 -2.88 0
v -3.84 -2.56 0
v -3.52 -2.56 0
v -3.84 -2.88 0
v -4.16 -2.88 0
v -4.16 -2.56 0
v -3.84 -2.56 0
v -4.16 -2.88 0
v -4.48 -2.88 0
v -4.48 -2.56 0
v -4.16 -2.56 0
v -1.6 -3.2 0
v -1.92 -3.2 0
v -1.92 -2.88 0
v -1.6 -2.88 0
v -2.88 -3.2 0
v -3.2 -3.2 0
v -3.2 -2.88 0
v -2.88 -2.88 0
v -3.84 -3.2 0
v -4.16 -3.2 0
v -4.16 -2.88 0
v -3.84 -2.88 0
v -4.16 -3.2 0
v -4.48 -3.2 0
v -4.48 -2.88 0
v -4.16 -2.88 0
v -4.48 -3.2 0
v -4.8 -3.2 0
v -4.8 -2.88 0
v -4.48 -2.88 0
v -0.32 -3.52 0
v -0.64 -3.52 0
v -0.64 -3.2 0
v -0.32 -3.2 0
v -1.6 -3.52 0
v -1.92 -3.52 0
v -1.92 -3.2 0
v -1.6 -3.2 0
v -3.52 -3.52 0
v -3.84 -3.52 0
v -3.84 -3.2 0
v -3.52 -3.2 0
v -4.16 -3.52 0
v -4.48 -3.52 0
v -4.48 -3.2 0
v -4.16 -3.2 0
v -0.32 -3.84 0
v -0.64 -3.84 0
v -0.64 -3.52 0
v -0.32 -3.52 0
v -2.24 -3.84 0
v -2.56 -3.84 0
v -2.56 -3.52 0
v -2.24 -3.52 0
v -3.52 -3.84 0
v -3.84 -3.84 0
v -3.84 -3.52 0
v -3.52 -3.52 0
v -4.16 -3.84 0
v -4.48 -3.84 0
v -4.48 -3.52 0
v -4.16 -3.52 0
v -0.32 -4.16 0
v -0.64 -4.16 0
v -0.64 -3.84 0
v -0.32 -3.84 0
v -1.92 -4.16 0
v -2.24 -4.16 0
v -2.24 -3.84 0
v -1.92 -3.84 0
v -2.24 -4.16 0
v -2.56 -4.16 0
v -2.56 -3.84 0
v -2.24 -3.84 0
v -2.56 -4.16 0
v -2.88 -4.16 0
v -2.88 -3.84 0
v -2.56 -3.84 0
v -4.16 -4.16 0
v -4.48 -4.16 0
v -4.48 -3.84 0
v -4.16 -3.84 0
v -0.32 -4.48 0
v -0.64 -4.48 0
v -0.64 -4.16 0
v -0.32 -4.16 0
v -2.24 -4.48 0
v -2.56 -4.48 0
v -2.56 -4.16 0
v -2.24 -4.16 0
v -0.32 -4.8 0
v -0.64 -4.8 0
v -0.64 -4.48 0
v -0.32 -4.48 0
v -2.88 -4.8 0
v -3.2 -4.8 0
v -3.2 -4.48 0
v -2.88 -4.48 0
v -3.2 -4.8 0
v -3.52 -4.8 0
v -3.52 -4.48 0
v -3.2 -4.48 0
v -3.52 -4.8 0
v -3.84 -4.8 0
v -3.84 -4.48 0
v -3.52 -4.48 0
v -3.84 -4.8 0
v -4.16 -4.8 0
v -4.16 -4.48 0
v -3.84 -4.48 0
v 0 -5.12 0
v -0.32 -5.12 0
v -0.32 -4.8 0
v 0 -4.8 0
v -0.32 -5.12 0
v -0.64 -5.12 0
v -0.64 -4.8 0
v -0.32 -4.8 0
v -2.88 -5.12 0
v -3.2 -5.12 0
v -3.2 -4.8 0
v -2.88 -4.8 0
v -3.2 -5.12 0
v -3.52 -5.12 0
v -3.52 -4.8 0
v -3.2 -4.8 0
v -3.52 -5.12 0
v -3.84 -5.12 0
v -3.84 -4.8 0
v -3.52 -4.8 0
v -3.84 -5.12 0
v -4.16 -5.12 0
v -4.16 -4.8 0
v -3.84 -4.8 0
v 0 -5.44 0
v -0.32 -5.44 0
v -0.32 -5.12 0
v 0 -5.12 0
v -2.88 -5.44 0
v -3.2 -5.44 0
v -3.2 -5.12 0
v -2.88 -5.12 0
v -3.2 -5.44 0
v -3.52 -5.44 0
v -3.52 -5.12 0
v -3.2 -5.12 0
v -3.52 -5.44 0
v -3.84 -5.44 0
v -3.84 -5.12 0
v -3.52 -5.12 0
v -3.84 -5.44 0
v -4.16 -5.44 0
v -4.16 -5.12 0
v -3.84 -5.12 0
v -2.88 -5.76 0
v -3.2 -5.76 0
v -3.2 -5.44 0
v -2.88 -5.44 0
v -3.2 -5.76 0
v -3.52 -5.76 0
v -3.52 -5.44 0
v -3.2 -5.44 0
v -3.52 -5.76 0
v -3.84 -5.76 0
v -3.84 -5.44 0
v -3.52 -5.44 0
v -3.84 -5.76 0
v -4.16 -5.76 0
v -4.16 -5.44 0
v -3.84 -5.44 0
v -5.76 -5.76 0
v -6.08 -5.76 0
v -6.08 -5.44 0
v -5.76 -5.44 0
v -6.08 -5.76 0
v -6.4 -5.76 0
v -6.4 -5.44 0
v -6.08 -5.44 0
v -6.4 -5.76 0
v -6.72 -5.76 0
v -6.72 -5.44 0
v -6.4 -5.44 0
v -6.72 -5.76 0
v -7.04 -5.76 0
v -7.04 -5.44 0
v -6.72 -5.44 0
v -7.04 -5.76 0
v -7.36 -5.76 0
v -7.36 -5.44 0
v -7.04 -5.44 0
v -7.36 -5.76 0
v -7.68 -5.76 0
v -7.68 -5.44 0
v -7.36 -5.44 0
v -7.68 -5.76 0
v -8 -5.76 0
v -8 -5.44 0
v -7.68 -5.44 0
v -0.96 -6.08 0
v -1.28 -6.08 0
v -1.28 -5.76 0
v -0.96 -5.76 0
v -1.28 -6.08 0
v -1.6 -6.08 0
v -1.6 -5.76 0
v -1.28 -5.76 0
v -1.92 -6.08 0
v -2.24 -6.08 0
v -2.24 -5.76 0
v -1.92 -5.76 0
v -2.24 -6.08 0
v -2.56 -6.08 0
v -2.56 -5.76 0
v -2.24 -5.76 0
v -5.76 -6.08 0
v -6.08 -6.08 0
v -6.08 -5.76 0
v -5.76 -5.76 0
v -6.08 -6.08 0
v -6.4 -6.08 0
v -6.4 -5.76 0
v -6.08 -5.76 0
v -6.4 -6.08 0
v -6.72 -6.08 0
v -6.72 -5.76 0
v -6.4 -5.76 0
v -6.72 -6.08 0
v -7.04 -6.08 0
v -7.04 -5.76 0
v -6.72 -5.76 0
v -7.04 -6.08 0
v -7.36 -6.08 0
v -7.36 -5.76 0
v -7.04 -5.76 0
v -7.36 -6.08 0
v -7.68 -6.08 0
v -7.68 -5.76 0
v -7.36 -5.76 0
v -7.68 -6.08 0
v -8 -6.08 0
v -8 -5.76 0
v -7.68 -5.76 0
v -0.64 -6.4 0
v -0.96 -6.4 0
v -0.96 -6.08 0
v -0.64 -6.08 0
v -0.96 -6.4 0
v -1.28 -6.4 0
v -1.28 -6.08 0
v -0.96 -6.08 0
v -1.28 -6.4 0
v -1.6 -6.4 0
v -1.6 -6.08 0
v -1.28 -6.08 0
v -5.76 -6.4 0
v -6.08 -6.4 0
v -6.08 -6.08 0
v -5.76 -6.08 0
v -6.08 -6.4 0
v -6.4 -6.4 0
v -6.4 -6.08 0
v -6.08 -6.08 0
v -6.4 -6.4 0
v -6.72 -6.4 0
v -6.72 -6.08 0
v -6.4 -6.08 0
v -6.72 -6.4 0
v -7.04 -6.4 0
v -7.04 -6.08 0
v -6.72 -6.08 0
v -7.04 -6.4 0
v -7.36 -6.4 0
v -7.36 -6.08 0
v -7.04 -6.08 0
v -7.36 -6.4 0
v -7.68 -6.4 0
v -7.68 -6.08 0
v -7.36 -6.08 0
v -7.68 -6.4 0
v -8 -6.4 0
v -8 -6.08 0
v -7.68 -6.08 0
v -0.32 -6.72 0
v -0.64 -6.72 0
v -0.64 -6.4 0
v -0.32 -6.4 0
v -0.64 -6.72 0
v -0.96 -6.72 0
v -0.96 -6.4 0
v -0.64 -6.4 0
v -5.76 -6.72 0
v -6.08 -6.72 0
v -6.08 -6.4 0
v -5.76 -6.4 0
v -6.08 -6.72 0
v -6.4 -6.72 0
v -6.4 -6.4 0
v -6.08 -6.4 0
v -6.4 -6.72 0
v -6.72 -6.72 0
v -6.72 -6.4 0
v -6.4 -6.4 0
v -6.72 -6.72 0
v -7.04 -6.72 0
v -7.04 -6.4 0
v -6.72 -6.4 0
v -7.04 -6.72 0
v -7.36 -6.72 0
v -7.36 -6.4 0
v -7.04 -6.4 0
v -7.36 -6.72 0
v -7.68 -6.72 0
v -7.68 -6.4 0
v -7.36 -6.4 0
v -7.68 -6.72 0
v -8 -6.72 0
v -8 -6.4 0
v -7.68 -6.4 0
v -5.76 -7.04 0
v -6.08 -7.04 0
v -6.08 -6.72 0
v -5.76 -6.72 0
v -6.08 -7.04 0
v -6.4 -7.04 0
v -6.4 -6.72 0
v -6.08 -6.72 0
v -6.4 -7.04 0
v -6.72 -7.04 0
v -6.72 -6.72 0
v -6.4 -6.72 0
v -6.72 -7.04 0
v -7.04 -7.04 0
v -7.04 -6.72 0
v -6.72 -6.72 0
v -7.04 -7.04 0
v -7.36 -7.04 0
v -7.36 -6.72 0
v -7.04 -6.72 0
v -7.36 -7.04 0
v -7.68 -7.04 0
v -7.68 -6.72 0
v -7.36 -6.72 0
v -7.68 -7.04 0
v -8 -7.04 0
v -8 -6.72 0
v -7.68 -6.72 0
v -5.76 -7.36 0
v -6.08 -7.36 0
v -6.08 -7.04 0
v -5.76 -7.04 0
v -6.08 -7.36 0
v -6.4 -7.36 0
v -6.4 -7.04 0
v -6.08 -7.04 0
v -6.4 -7.36 0
v -6.72 -7.36 0
v -6.72 -7.04 0
v -6.4 -7.04 0
v -6.72 -7.36 0
v -7.04 -7.36 0
v -7.04 -7.04 0
v -6.72 -7.04 0
v -7.04 -7.36 0
v -7.36 -7.36 0
v -7.36 -7.04 0
v -7.04 -7.04 0
v -7.36 -7.36 0
v -7.68 -7.36 0
v -7.68 -7.04 0
v -7.36 -7.04 0
v -7.68 -7.36 0
v -8 -7.36 0
v -8 -7.04 0
v -7.68 -7.04 0
v -5.76 -7.68 0
v -6.08 -7.68 0
v -6.08 -7.36 0
v -5.76 -7.36 0
v -6.08 -7.68 0
v -6.4 -7.68 0
v -6.4 -7.36 0
v -6.08 -7.36 0
v -6.4 -7.68 0
v -6.72 -7.68 0
v -6.72 -7.36 0
v -6.4 -7.36 0
v -6.72 -7.68 0
v -7.04 -7.68 0
v -7.04 -7.36 0
v -6.72 -7.36 0
v -7.04 -7.68 0
v -7.36 -7.68 0
v -7.36 -7.36 0
v -7.04 -7.36 0
v -7.36 -7.68 0
v -7.68 -7.68 0
v -7.68 -7.36 0
v -7.36 -7.36 0
v -7.68 -7.68 0
v -8 -7.68 0
v -8 -7.36 0
v -7.68 -7.36 0

# Texture cooridinates (Count = 84)
vt 0.4375 0.3125
vt 0.5 0.3125
vt 0.5 0.375
vt 0.4375 0.375
vt 0.5625 0.3125
vt 0.5625 0.375
vt 0.5 0.4375
vt 0.4375 0.4375
vt 0.8125 0.0625
vt 0.875 0.0625
vt 0.875 0.125
vt 0.8125 0.125
vt 0.8125 0
vt 0.875 0
vt 0.9375 0.0625
vt 0.9375 0.125
vt 1 0.0625
vt 1 0.125
vt 0.9375 0
vt 1 0
vt 0 0.9375
vt 0.0625 0.9375
vt 0.0625 1
vt 0 1
vt 0.125 0.9375
vt 0.125 1
vt 0.1875 0.9375
vt 0.1875 1
vt 0.25 0.9375
vt 0.25 1
vt 0.4375 0.9375
vt 0.5 0.9375
vt 0.5 1
vt 0.4375 1
vt 0.5625 0.9375
vt 0.5625 1
vt 0 0.875
vt 0.0625 0.875
vt 0.125 0.875
vt 0.1875 0.875
vt 0.25 0.875
vt 0.4375 0.875
vt 0.5 0.875
vt 0.5625 0.875
vt 0 0.8125
vt 0.0625 0.8125
vt 0.125 0.8125
vt 0.1875 0.8125
vt 0.25 0.8125
vt 0.4375 0.8125
vt 0.5 0.8125
vt 0.5625 0.8125
vt 0 0.75
vt 0.0625 0.75
vt 0.125 0.75
vt 0.1875 0.75
vt 0.25 0.75
vt 0.4375 0.75
vt 0.5 0.75
vt 0.5625 0.75
vt 0 0.6875
vt 0.0625 0.6875
vt 0.125 0.6875
vt 0.1875 0.6875
vt 0.25 0.6875
vt 0.4375 0.6875
vt 0.5 0.6875
vt 0.5625 0.6875
vt 0 0.625
vt 0.0625 0.625
vt 0.125 0.625
vt 0.1875 0.625
vt 0.25 0.625
vt 0.4375 0.625
vt 0.5 0.625
vt 0.5625 0.625
vt 0 0.5625
vt 0.0625 0.5625
vt 0.125 0.5625
vt 0.1875 0.5625
vt 0.25 0.5625
vt 0.4375 0.5625
vt 0.5 0.5625
vt 0.5625 0.5625

# Normal
vn 0 0 -1

# Mesh description
g Forr_Dos_mesh_0003

# Faces
f 1/1/1 2/2/1 3/3/1 4/4/1
f 5/2/1 6/5/1 7/6/1 8/3/1
f 9/2/1 10/5/1 11/6/1 12/3/1
f 13/1/1 14/2/1 15/3/1 16/4/1
f 17/2/1 18/5/1 19/6/1 20/3/1
f 21/4/1 22/3/1 23/7/1 24/8/1
f 25/2/1 26/5/1 27/6/1 28/3/1
f 29/2/1 30/5/1 31/6/1 32/3/1
f 33/4/1 34/3/1 35/7/1 36/8/1
f 37/2/1 38/5/1 39/6/1 40/3/1
f 41/2/1 42/5/1 43/6/1 44/3/1
f 45/2/1 46/5/1 47/6/1 48/3/1
f 49/1/1 50/2/1 51/3/1 52/4/1
f 53/4/1 54/3/1 55/7/1 56/8/1
f 57/2/1 58/5/1 59/6/1 60/3/1
f 61/1/1 62/2/1 63/3/1 64/4/1
f 65/4/1 66/3/1 67/7/1 68/8/1
f 69/2/1 70/5/1 71/6/1 72/3/1
f 73/2/1 74/5/1 75/6/1 76/3/1
f 77/4/1 78/3/1 79/7/1 80/8/1
f 81/2/1 82/5/1 83/6/1 84/3/1
f 85/4/1 86/3/1 87/7/1 88/8/1
f 89/2/1 90/5/1 91/6/1 92/3/1
f 93/2/1 94/5/1 95/6/1 96/3/1
f 97/2/1 98/5/1 99/6/1 100/3/1
f 101/2/1 102/5/1 103/6/1 104/3/1
f 105/1/1 106/2/1 107/3/1 108/4/1
f 109/9/1 110/10/1 111/11/1 112/12/1
f 113/2/1 114/5/1 115/6/1 116/3/1
f 117/2/1 118/5/1 119/6/1 120/3/1
f 121/2/1 122/5/1 123/6/1 124/3/1
f 125/2/1 126/5/1 127/6/1 128/3/1
f 129/13/1 130/14/1 131/10/1 132/9/1
f 133/9/1 134/10/1 135/11/1 136/12/1
f 137/2/1 138/5/1 139/6/1 140/3/1
f 141/2/1 142/5/1 143/6/1 144/3/1
f 145/4/1 146/3/1 147/7/1 148/8/1
f 149/9/1 150/10/1 151/11/1 152/12/1
f 153/13/1 154/14/1 155/10/1 156/9/1
f 157/2/1 158/5/1 159/6/1 160/3/1
f 161/2/1 162/5/1 163/6/1 164/3/1
f 165/4/1 166/3/1 167/7/1 168/8/1
f 169/4/1 170/3/1 171/7/1 172/8/1
f 173/13/1 174/14/1 175/10/1 176/9/1
f 177/9/1 178/10/1 179/11/1 180/12/1
f 181/2/1 182/5/1 183/6/1 184/3/1
f 185/2/1 186/5/1 187/6/1 188/3/1
f 189/4/1 190/3/1 191/7/1 192/8/1
f 193/13/1 194/14/1 195/10/1 196/9/1
f 197/2/1 198/5/1 199/6/1 200/3/1
f 201/1/1 202/2/1 203/3/1 204/4/1
f 205/4/1 206/3/1 207/7/1 208/8/1
f 209/1/1 210/2/1 211/3/1 212/4/1
f 213/4/1 214/3/1 215/7/1 216/8/1
f 217/4/1 218/3/1 219/7/1 220/8/1
f 221/4/1 222/3/1 223/7/1 224/8/1
f 225/4/1 226/3/1 227/7/1 228/8/1
f 229/1/1 230/2/1 231/3/1 232/4/1
f 233/10/1 234/15/1 235/16/1 236/11/1
f 237/15/1 238/17/1 239/18/1 240/16/1
f 241/10/1 242/15/1 243/16/1 244/11/1
f 245/15/1 246/17/1 247/18/1 248/16/1
f 249/2/1 250/5/1 251/6/1 252/3/1
f 253/4/1 254/3/1 255/7/1 256/8/1
f 257/14/1 258/19/1 259/15/1 260/10/1
f 261/19/1 262/20/1 263/17/1 264/15/1
f 265/14/1 266/19/1 267/15/1 268/10/1
f 269/19/1 270/20/1 271/17/1 272/15/1
f 273/4/1 274/3/1 275/7/1 276/8/1
f 277/10/1 278/15/1 279/16/1 280/11/1
f 281/15/1 282/17/1 283/18/1 284/16/1
f 285/10/1 286/15/1 287/16/1 288/11/1
f 289/15/1 290/17/1 291/18/1 292/16/1
f 293/14/1 294/19/1 295/15/1 296/10/1
f 297/19/1 298/20/1 299/17/1 300/15/1
f 301/14/1 302/19/1 303/15/1 304/10/1
f 305/19/1 306/20/1 307/17/1 308/15/1
f 309/21/1 310/22/1 311/23/1 312/24/1
f 313/22/1 314/25/1 315/26/1 316/23/1
f 317/25/1 318/27/1 319/28/1 320/26/1
f 321/27/1 322/29/1 323/30/1 324/28/1
f 325/31/1 326/32/1 327/33/1 328/34/1
f 329/32/1 330/35/1 331/36/1 332/33/1
f 333/31/1 334/32/1 335/33/1 336/34/1
f 337/1/1 338/2/1 339/3/1 340/4/1
f 341/2/1 342/5/1 343/6/1 344/3/1
f 345/2/1 346/5/1 347/6/1 348/3/1
f 349/1/1 350/2/1 351/3/1 352/4/1
f 353/37/1 354/38/1 355/22/1 356/21/1
f 357/38/1 358/39/1 359/25/1 360/22/1
f 361/39/1 362/40/1 363/27/1 364/25/1
f 365/40/1 366/41/1 367/29/1 368/27/1
f 369/42/1 370/43/1 371/32/1 372/31/1
f 373/43/1 374/44/1 375/35/1 376/32/1
f 377/42/1 378/43/1 379/32/1 380/31/1
f 381/2/1 382/5/1 383/6/1 384/3/1
f 385/2/1 386/5/1 387/6/1 388/3/1
f 389/2/1 390/5/1 391/6/1 392/3/1
f 393/45/1 394/46/1 395/38/1 396/37/1
f 397/46/1 398/47/1 399/39/1 400/38/1
f 401/47/1 402/48/1 403/40/1 404/39/1
f 405/48/1 406/49/1 407/41/1 408/40/1
f 409/50/1 410/51/1 411/43/1 412/42/1
f 413/51/1 414/52/1 415/44/1 416/43/1
f 417/50/1 418/51/1 419/43/1 420/42/1
f 421/4/1 422/3/1 423/7/1 424/8/1
f 425/1/1 426/2/1 427/3/1 428/4/1
f 429/53/1 430/54/1 431/46/1 432/45/1
f 433/54/1 434/55/1 435/47/1 436/46/1
f 437/55/1 438/56/1 439/48/1 440/47/1
f 441/56/1 442/57/1 443/49/1 444/48/1
f 445/58/1 446/59/1 447/51/1 448/50/1
f 449/59/1 450/60/1 451/52/1 452/51/1
f 453/58/1 454/59/1 455/51/1 456/50/1
f 457/61/1 458/62/1 459/54/1 460/53/1
f 461/62/1 462/63/1 463/55/1 464/54/1
f 465/63/1 466/64/1 467/56/1 468/55/1
f 469/64/1 470/65/1 471/57/1 472/56/1
f 473/66/1 474/67/1 475/59/1 476/58/1
f 477/67/1 478/68/1 479/60/1 480/59/1
f 481/66/1 482/67/1 483/59/1 484/58/1
f 485/69/1 486/70/1 487/62/1 488/61/1
f 489/70/1 490/71/1 491/63/1 492/62/1
f 493/71/1 494/72/1 495/64/1 496/63/1
f 497/72/1 498/73/1 499/65/1 500/64/1
f 501/74/1 502/75/1 503/67/1 504/66/1
f 505/75/1 506/76/1 507/68/1 508/67/1
f 509/74/1 510/75/1 511/67/1 512/66/1
f 513/77/1 514/78/1 515/70/1 516/69/1
f 517/78/1 518/79/1 519/71/1 520/70/1
f 521/79/1 522/80/1 523/72/1 524/71/1
f 525/80/1 526/81/1 527/73/1 528/72/1
f 529/82/1 530/83/1 531/75/1 532/74/1
f 533/83/1 534/84/1 535/76/1 536/75/1
f 537/82/1 538/83/1 539/75/1 540/74/1

